<svg width="60" height="60" viewBox="0 0 60 60" fill="none" xmlns="http://www.w3.org/2000/svg">
<g clip-path="url(#clip0)">
<path d="M55.161 5.69629H4.83902C2.17066 5.69629 0 7.86719 0 10.5354V54.4644C0 57.1328 2.17066 59.3035 4.83902 59.3035H55.161C57.8293 59.3035 60 57.1328 60 54.4644V10.5354C60 7.86719 57.8293 5.69629 55.161 5.69629ZM58.2422 54.4645C58.2422 56.1635 56.86 57.5458 55.161 57.5458H4.83902C3.14004 57.5458 1.75781 56.1635 1.75781 54.4645V10.5354C1.75781 8.83645 3.14004 7.4541 4.83902 7.4541H55.161C56.86 7.4541 58.2422 8.83645 58.2422 10.5354V54.4645Z" fill="black"/>
<path d="M53.3979 10.4688H15.276C14.7905 10.4688 14.3971 10.8621 14.3971 11.3477C14.3971 11.8332 14.7905 12.2266 15.276 12.2266H53.3979C53.8075 12.2266 54.1406 12.5598 54.1406 12.9694V52.7015C54.1406 53.111 53.8075 53.4443 53.3979 53.4443H6.60223C6.19266 53.4443 5.85938 53.111 5.85938 52.7015V12.9694C5.85938 12.5598 6.19266 12.2266 6.60223 12.2266H11.1671C11.6527 12.2266 12.0461 11.8332 12.0461 11.3477C12.0461 10.8621 11.6527 10.4688 11.1671 10.4688H6.60223C5.22328 10.4688 4.10156 11.5905 4.10156 12.9694V52.7015C4.10156 54.0804 5.22328 55.2021 6.60223 55.2021H53.3979C54.7767 55.2021 55.8984 54.0804 55.8984 52.7015V12.9694C55.8984 11.5905 54.7767 10.4688 53.3979 10.4688Z" fill="black"/>
<path d="M34.2566 27.1772L26.3507 24.2597C25.5712 23.9721 24.6986 24.0847 24.0172 24.5612L9.2893 34.8649C8.89145 35.1432 8.79465 35.6911 9.07285 36.0888C9.35211 36.4879 9.9002 36.5826 10.2969 36.3052L25.0248 26.0016C25.2344 25.8551 25.5027 25.8207 25.7422 25.9089L33.6481 28.8264C34.4284 29.1144 35.3005 29.0015 35.9817 28.525L47.3273 20.5874L47.0565 22.9742C47.0018 23.4565 47.3484 23.8919 47.8306 23.9466C47.8643 23.9504 47.8977 23.9524 47.9308 23.9524C48.3718 23.9524 48.7521 23.6211 48.8029 23.1725L49.2935 18.8492C49.3475 18.3687 49.0017 17.9381 48.5296 17.8781L44.2126 17.3358C43.7319 17.2751 43.2916 17.6166 43.231 18.0984C43.1704 18.5799 43.5118 19.0195 43.9936 19.0799L46.0468 19.3378L34.9738 27.0845C34.7646 27.2309 34.4963 27.2656 34.2566 27.1772Z" fill="#4414DA"/>
<path d="M17.3027 40.9758H14.0969C13.1911 40.9758 12.4541 41.7126 12.4541 42.6185V46.2695H9.79492C9.30941 46.2695 8.91602 46.6629 8.91602 47.1484C8.91602 47.6339 9.30941 48.0273 9.79492 48.0273H50.2075C50.693 48.0273 51.0864 47.6339 51.0864 47.1484C51.0864 46.6629 50.693 46.2695 50.2075 46.2695H47.5484V37.3489C47.5484 36.8634 47.155 36.47 46.6695 36.47C46.184 36.47 45.7906 36.8634 45.7906 37.3489V46.2695H42.8148V29.9789H45.7906V33.2399C45.7906 33.7254 46.184 34.1188 46.6695 34.1188C47.155 34.1188 47.5484 33.7254 47.5484 33.2399V29.8637C47.5484 28.9579 46.8115 28.2209 45.9057 28.2209H42.6999C41.7941 28.2209 41.057 28.9578 41.057 29.8637V46.2693H38.014V38.5315C38.014 37.6257 37.2771 36.8886 36.3713 36.8886H33.1655C32.2598 36.8886 31.5227 37.6256 31.5227 38.5315V46.2693H28.4796V34.5252C28.4796 33.6194 27.7427 32.8824 26.8368 32.8824H23.631C22.7253 32.8824 21.9883 33.6193 21.9883 34.5252V46.2695H18.9453V42.6185C18.9454 41.7126 18.2084 40.9758 17.3027 40.9758ZM14.212 42.7336H17.1877V46.2695H14.212V42.7336ZM33.2805 38.6465H36.2562V46.2695H33.2805V38.6465ZM23.7462 34.6404H26.722V46.2695H23.7462V34.6404Z" fill="black"/>
</g>
<defs>
<clipPath id="clip0">
<rect width="60" height="60" fill="white"/>
</clipPath>
</defs>
</svg>
