<svg width="22" height="17" viewBox="0 0 22 17" fill="none" xmlns="http://www.w3.org/2000/svg">
<path d="M2.11156 5.2401C2.38986 5.43323 3.22875 6.00685 4.62828 6.96066C6.02784 7.91446 7.10001 8.64887 7.84481 9.16392C7.92664 9.22037 8.10049 9.3431 8.36645 9.53226C8.63245 9.72155 8.85347 9.87451 9.02934 9.99119C9.20534 10.1078 9.4181 10.2387 9.66785 10.3835C9.91751 10.5282 10.1528 10.6371 10.3738 10.7091C10.5948 10.7818 10.7994 10.8178 10.9876 10.8178H11H11.0124C11.2006 10.8178 11.4053 10.7818 11.6263 10.7091C11.8472 10.6371 12.0827 10.5281 12.3322 10.3835C12.5818 10.2385 12.7945 10.1078 12.9705 9.99119C13.1465 9.87451 13.3674 9.72155 13.6334 9.53226C13.8994 9.34293 14.0734 9.22037 14.1553 9.16392C14.9081 8.64887 16.8235 7.3408 19.9007 5.23984C20.4982 4.8295 20.9973 4.33437 21.3983 3.75479C21.7996 3.17546 22 2.56771 22 1.93189C22 1.40056 21.8055 0.945728 21.4167 0.567445C21.0279 0.189078 20.5675 0 20.0357 0H1.9642C1.33404 0 0.84908 0.20925 0.509422 0.627751C0.169808 1.04634 0 1.56955 0 2.19734C0 2.70444 0.225149 3.25395 0.675231 3.84554C1.12527 4.43718 1.60421 4.90207 2.11156 5.2401Z" fill="#4414DA"/>
<path d="M20.7721 6.53184C18.0879 8.31863 16.0497 9.70726 14.6585 10.6974C14.192 11.0354 13.8136 11.2992 13.5229 11.4882C13.2323 11.6774 12.8458 11.8706 12.3628 12.0677C11.88 12.2651 11.43 12.3635 11.0125 12.3635H11H10.9877C10.5703 12.3635 10.1201 12.2651 9.63726 12.0677C9.15446 11.8706 8.76767 11.6774 8.47712 11.4882C8.18666 11.2992 7.80808 11.0354 7.34162 10.6974C6.23665 9.90061 4.20283 8.51189 1.24008 6.53184C0.773442 6.22617 0.360126 5.8758 0 5.48145V15.0679C0 15.5995 0.192253 16.0541 0.576975 16.4324C0.961611 16.8109 1.42412 17 1.96433 17H20.0358C20.5759 17 21.0383 16.8109 21.423 16.4324C21.8078 16.054 22 15.5995 22 15.0679V5.48145C21.648 5.86764 21.2389 6.21801 20.7721 6.53184Z" fill="#4414DA"/>
</svg>
