<svg width="15" height="11" viewBox="0 0 15 11" fill="none" xmlns="http://www.w3.org/2000/svg">
<path d="M0.335677 9.30287C0.641716 10.4279 1.57794 10.6338 1.6404 10.6733C3.18121 11.1083 11.8177 11.1096 13.3817 10.6733C14.4528 10.3522 14.6495 9.3676 14.6864 9.30287C15.0942 7.05405 15.1211 4.1223 14.6676 1.57053L14.6864 1.6974C14.3803 0.572347 13.4441 0.366497 13.3817 0.32701C11.8615 -0.100874 3.20245 -0.117057 1.6404 0.32701C0.569266 0.648732 0.372527 1.63267 0.335677 1.6974C-0.100896 4.0608 -0.122756 6.77246 0.335677 9.30287ZM6.0105 7.86386V3.14289L9.92405 5.50693L6.0105 7.86386Z" fill="var(--icon-color, black)"/>
</svg>
