<svg width="15" height="9" viewBox="0 0 15 9" fill="none" xmlns="http://www.w3.org/2000/svg">
<path d="M12.4469 5.16086C12.2044 4.84586 12.2738 4.70571 12.4469 4.42414C12.45 4.42093 14.4519 1.57564 14.6581 0.610714L14.6594 0.610071C14.7619 0.258428 14.6594 0 14.1638 0H12.5238C12.1062 0 11.9137 0.221786 11.8106 0.469929C11.8106 0.469929 10.9756 2.52579 9.79437 3.85843C9.41313 4.2435 9.23688 4.36693 9.02875 4.36693C8.92625 4.36693 8.76688 4.2435 8.76688 3.89186V0.610071C8.76688 0.188357 8.65 0 8.30437 0H5.72563C5.46375 0 5.30813 0.196714 5.30813 0.379929C5.30813 0.779786 5.89875 0.871714 5.96 1.99671V4.43764C5.96 4.9725 5.86562 5.07086 5.65625 5.07086C5.09875 5.07086 3.74563 3.00664 2.94375 0.644143C2.78188 0.185786 2.62375 0.000642811 2.20312 0.000642811H0.5625C0.094375 0.000642811 0 0.222428 0 0.470571C0 0.909 0.5575 3.08893 2.5925 5.96893C3.94875 7.93479 5.85875 9 7.59625 9C8.64062 9 8.76813 8.76343 8.76813 8.3565C8.76813 6.47807 8.67375 6.30064 9.19687 6.30064C9.43937 6.30064 9.85687 6.42407 10.8319 7.37229C11.9462 8.49664 12.1294 9 12.7531 9H14.3931C14.8606 9 15.0975 8.76343 14.9613 8.29671C14.6494 7.31507 12.5419 5.29586 12.4469 5.16086Z" fill="black"/>
</svg>
