<svg width="60" height="60" viewBox="0 0 60 60" fill="none" xmlns="http://www.w3.org/2000/svg">
<g clip-path="url(#clip0)">
<path d="M30.0008 4.68872C29.3518 4.68872 28.8301 5.21138 28.8301 5.85942C28.8301 6.46259 29.2838 6.9645 29.8836 7.02403C30.5779 7.09294 31.1715 6.55212 31.1715 5.85942C31.1715 5.21044 30.6488 4.68872 30.0008 4.68872Z" fill="black" stroke="white" stroke-width="0.6"/>
<path d="M30 17.1094C24.1845 17.1094 19.4531 21.8407 19.4531 27.6562C19.4531 33.4718 24.1845 38.2031 30 38.2031C35.8155 38.2031 40.5469 33.4718 40.5469 27.6562C40.5469 21.8407 35.8155 17.1094 30 17.1094ZM30 35.8594C25.4768 35.8594 21.7969 32.1795 21.7969 27.6562C21.7969 23.133 25.4768 19.4531 30 19.4531C34.5232 19.4531 38.2031 23.133 38.2031 27.6562C38.2031 32.1795 34.5232 35.8594 30 35.8594Z" fill="#4414DA" stroke="white" stroke-width="0.6"/>
<path d="M53.4375 7.03125C50.2066 7.03125 47.5781 4.40273 47.5781 1.17188C47.5781 0.524766 47.0534 0 46.4062 0H13.5938C12.9466 0 12.4219 0.524766 12.4219 1.17188C12.4219 4.40273 9.79336 7.03125 6.5625 7.03125C5.91539 7.03125 5.39062 7.55602 5.39062 8.20312V27.327C5.39062 42.2305 15.1049 55.585 29.6634 59.9507C29.7732 59.9835 29.8866 60 30 60C30.1134 60 30.227 59.9835 30.3367 59.9505C44.5799 55.678 54.6094 42.5565 54.6094 27.327V8.20312C54.6094 7.55602 54.0846 7.03125 53.4375 7.03125ZM52.2656 27.327C52.2656 41.3248 43.3335 53.4471 30 57.6027C16.7728 53.4803 7.73438 41.2481 7.73438 27.327V9.29156C11.3216 8.77617 14.1668 5.93098 14.6822 2.34375H45.3178C45.8332 5.93098 48.6784 8.77617 52.2656 9.29156V27.327Z" fill="black" stroke="white" stroke-width="0.6"/>
<path d="M49.2202 10.8387C46.7763 9.7684 44.841 7.83305 43.7707 5.38922C43.5839 4.96289 43.1627 4.6875 42.6973 4.6875H34.6852C34.038 4.6875 33.5133 5.21227 33.5133 5.85937C33.5133 6.50648 34.038 7.03125 34.6852 7.03125H41.9563C43.1944 9.4548 45.1546 11.4149 47.5781 12.6531V27.327C47.5781 38.7953 40.6935 48.6906 30 52.6516C19.3065 48.6905 12.4219 38.7953 12.4219 27.327V12.6531C14.8454 11.4149 16.8055 9.4548 18.0437 7.03125H25.3148C25.962 7.03125 26.4867 6.50648 26.4867 5.85937C26.4867 5.21227 25.962 4.6875 25.3148 4.6875H17.3027C16.8373 4.6875 16.4161 4.96301 16.2293 5.38922C15.159 7.83305 13.2237 9.7684 10.7798 10.8387C10.3536 11.0255 10.0781 11.4468 10.0781 11.9121V27.327C10.0781 39.891 17.8489 50.841 29.6091 55.0027C29.7355 55.0474 29.8677 55.0698 30 55.0698C30.1323 55.0698 30.2645 55.0474 30.3909 55.0027C42.1412 50.8445 49.9219 39.9012 49.9219 27.327V11.9121C49.9219 11.4466 49.6464 11.0255 49.2202 10.8387Z" fill="black" stroke="white" stroke-width="0.6"/>
<path d="M35.5162 24.4838C35.0585 24.0262 34.3167 24.0262 33.8588 24.4838L28.8282 29.5145L27.3131 27.9995C26.8554 27.542 26.1136 27.542 25.6557 27.9995C25.1981 28.4571 25.1981 29.1991 25.6557 29.6569L27.9995 32.0006C28.2284 32.2293 28.5282 32.3438 28.8282 32.3438C29.1282 32.3438 29.428 32.2293 29.6568 32.0005L35.5162 26.1411C35.9738 25.6835 35.9738 24.9415 35.5162 24.4838Z" fill="#4414DA" stroke="white" stroke-width="0.6"/>
</g>
<defs>
<clipPath id="clip0">
<rect width="60" height="60" fill="white"/>
</clipPath>
</defs>
</svg>
