<svg width="60" height="60" viewBox="0 0 60 60" fill="none" xmlns="http://www.w3.org/2000/svg">
<path d="M51.0601 51.2223C45.4329 56.8191 37.9584 59.9 30.001 59.9C22.0101 59.9 14.5063 56.7932 8.87078 51.1517C-2.77932 39.4887 -2.77932 20.5113 8.87078 8.84848C14.5063 3.20691 22.01 0.1 30.0009 0.1C37.9918 0.1 45.4955 3.2068 51.1309 8.84825C62.7574 20.4876 62.7809 39.4119 51.2014 51.0808L50.4432 50.3234L50.3725 50.3941L50.3019 50.4649L51.0601 51.2223ZM30.0009 2.24375C22.5836 2.24375 15.6177 5.12757 10.3875 10.3635C-0.428315 21.1911 -0.428314 38.8089 10.3875 49.6367C15.6177 54.8725 22.5836 57.7562 30.0009 57.7562C37.4181 57.7562 44.384 54.8725 49.6142 49.6367C60.4301 38.809 60.4301 21.1911 49.6142 10.3634C44.384 5.12746 37.4183 2.24375 30.0009 2.24375Z" fill="black" stroke="white" stroke-width="0.2"/>
<path d="M7.38442 33.5564L7.28561 33.5718L7.38442 33.5564C7.29331 32.9715 7.69375 32.4235 8.2787 32.3324L8.26331 32.2336L8.27871 32.3324C8.86249 32.2414 9.41156 32.6417 9.50266 33.2267C10.1833 37.5986 12.1961 41.5646 15.3233 44.6952C19.2372 48.6135 24.4502 50.7715 30.0009 50.7715C35.5516 50.7715 40.7645 48.6136 44.6785 44.6952C52.7727 36.592 52.7727 23.4078 44.6785 15.3046C40.7644 11.3863 35.5513 9.22837 30.0007 9.22837C24.45 9.22837 19.2371 11.3863 15.3231 15.3047C13.616 17.0136 12.2345 18.9808 11.2168 21.1517C10.9655 21.6877 10.3272 21.9187 9.79134 21.6674L9.79133 21.6674C9.2553 21.4162 9.02451 20.778 9.27577 20.2419C10.399 17.8456 11.9232 15.6747 13.8064 13.7896L13.7356 13.7189L13.8064 13.7896C18.1255 9.46568 23.8764 7.08462 30.0007 7.08462C36.1249 7.08462 41.8758 9.46568 46.1949 13.7896C55.1235 22.7279 55.1235 37.272 46.1949 46.2103C41.8759 50.5341 36.125 52.9152 30.0007 52.9152C23.8764 52.9152 18.1255 50.5341 13.8064 46.2102C10.3559 42.7559 8.13526 38.3804 7.38442 33.5564Z" fill="black" stroke="white" stroke-width="0.2"/>
<path d="M7.43466 26.9263L7.43466 26.9263C7.28973 26.4973 7.4359 26.0067 7.796 25.7317L7.79602 25.7317C8.14205 25.4673 8.62546 25.4411 8.99964 25.6635L8.99966 25.6635C9.38229 25.8909 9.58889 26.3549 9.50013 26.7914C9.39948 27.2858 8.95275 27.6535 8.44851 27.6535C7.99505 27.6535 7.57982 27.356 7.43466 26.9263Z" fill="black" stroke="white" stroke-width="0.2"/>
<path d="M43.7767 29.0609L43.7766 29.0608L45.8362 28.9092C45.8362 28.9092 45.8362 28.9092 45.8362 28.9092C45.737 29.4039 45.2894 29.7723 44.7847 29.7723C44.337 29.7723 43.9276 29.482 43.7767 29.0609Z" fill="black" stroke="white" stroke-width="0.2"/>
<mask id="path-5-inside-1" fill="white">
<path fill-rule="evenodd" clip-rule="evenodd" d="M43.007 34.2293C43.2051 33.6133 43.8649 33.2747 44.4815 33.4728C45.0977 33.671 45.4363 34.3313 45.238 34.9471C44.4678 37.3401 43.1162 39.5503 41.3291 41.3392C40.1003 42.5694 38.6951 43.5826 37.1525 44.3508L37.1502 44.3519C34.9114 45.468 32.4559 46.026 30.0003 46.026C27.5448 46.026 25.0892 45.468 22.8506 44.352L22.8483 44.3509C21.3057 43.5829 19.9004 42.5696 18.6716 41.3392C12.4246 35.0869 12.4246 24.913 18.6717 18.6605C21.6928 15.6355 25.7161 13.9695 30.0003 13.9695C34.2846 13.9695 38.3079 15.6355 41.3291 18.6607C42.5456 19.8771 43.5519 21.271 44.3198 22.803C44.6099 23.3816 44.3758 24.0857 43.7972 24.3757C43.2186 24.6652 42.5146 24.4317 42.2244 23.8531C41.5693 22.5461 40.7103 21.3565 39.6714 20.3175C37.0924 17.7352 33.658 16.3132 30.0005 16.3132C26.3429 16.3132 22.9086 17.7352 20.3301 20.3169C14.9954 25.6564 14.9954 34.3437 20.3299 39.6829C20.9092 40.2627 21.5341 40.7857 22.1988 41.2483V37.9346C22.1988 36.288 23.5376 34.9483 25.1831 34.9483H34.8179C36.4635 34.9483 37.8022 36.2878 37.8022 37.9346V41.2484C38.4669 40.7859 39.0917 40.263 39.671 39.6831C41.2183 38.134 42.3408 36.2992 43.007 34.2293ZM24.5426 37.9346V42.5557C28.008 44.06 31.9929 44.06 35.4585 42.5557V37.9346C35.4585 37.5803 35.1711 37.292 34.8179 37.292H25.1831C24.8299 37.292 24.5426 37.5803 24.5426 37.9346ZM30.0007 34.1799C26.357 34.1799 23.3926 31.213 23.3926 27.5661C23.3926 23.9191 26.357 20.9521 30.0007 20.9521C33.6444 20.9521 36.6088 23.9191 36.6088 27.5661C36.6088 31.213 33.6444 34.1799 30.0007 34.1799ZM30.0005 31.8362C32.3519 31.8362 34.2649 29.9206 34.2649 27.5661C34.2649 25.2116 32.3519 23.2959 30.0005 23.2959C27.6492 23.2959 25.7362 25.2114 25.7362 27.5661C25.7362 29.9205 27.6492 31.8362 30.0005 31.8362Z"/>
</mask>
<path fill-rule="evenodd" clip-rule="evenodd" d="M43.007 34.2293C43.2051 33.6133 43.8649 33.2747 44.4815 33.4728C45.0977 33.671 45.4363 34.3313 45.238 34.9471C44.4678 37.3401 43.1162 39.5503 41.3291 41.3392C40.1003 42.5694 38.6951 43.5826 37.1525 44.3508L37.1502 44.3519C34.9114 45.468 32.4559 46.026 30.0003 46.026C27.5448 46.026 25.0892 45.468 22.8506 44.352L22.8483 44.3509C21.3057 43.5829 19.9004 42.5696 18.6716 41.3392C12.4246 35.0869 12.4246 24.913 18.6717 18.6605C21.6928 15.6355 25.7161 13.9695 30.0003 13.9695C34.2846 13.9695 38.3079 15.6355 41.3291 18.6607C42.5456 19.8771 43.5519 21.271 44.3198 22.803C44.6099 23.3816 44.3758 24.0857 43.7972 24.3757C43.2186 24.6652 42.5146 24.4317 42.2244 23.8531C41.5693 22.5461 40.7103 21.3565 39.6714 20.3175C37.0924 17.7352 33.658 16.3132 30.0005 16.3132C26.3429 16.3132 22.9086 17.7352 20.3301 20.3169C14.9954 25.6564 14.9954 34.3437 20.3299 39.6829C20.9092 40.2627 21.5341 40.7857 22.1988 41.2483V37.9346C22.1988 36.288 23.5376 34.9483 25.1831 34.9483H34.8179C36.4635 34.9483 37.8022 36.2878 37.8022 37.9346V41.2484C38.4669 40.7859 39.0917 40.263 39.671 39.6831C41.2183 38.134 42.3408 36.2992 43.007 34.2293ZM24.5426 37.9346V42.5557C28.008 44.06 31.9929 44.06 35.4585 42.5557V37.9346C35.4585 37.5803 35.1711 37.292 34.8179 37.292H25.1831C24.8299 37.292 24.5426 37.5803 24.5426 37.9346ZM30.0007 34.1799C26.357 34.1799 23.3926 31.213 23.3926 27.5661C23.3926 23.9191 26.357 20.9521 30.0007 20.9521C33.6444 20.9521 36.6088 23.9191 36.6088 27.5661C36.6088 31.213 33.6444 34.1799 30.0007 34.1799ZM30.0005 31.8362C32.3519 31.8362 34.2649 29.9206 34.2649 27.5661C34.2649 25.2116 32.3519 23.2959 30.0005 23.2959C27.6492 23.2959 25.7362 25.2114 25.7362 27.5661C25.7362 29.9205 27.6492 31.8362 30.0005 31.8362Z" fill="#4414DA"/>
<path d="M44.4815 33.4728L44.5428 33.2824L44.5427 33.2823L44.4815 33.4728ZM43.007 34.2293L43.1974 34.2906L43.1974 34.2906L43.007 34.2293ZM45.238 34.9471L45.0476 34.8858L45.0476 34.8858L45.238 34.9471ZM41.3291 41.3392L41.1876 41.1979L41.1876 41.1979L41.3291 41.3392ZM37.1525 44.3508L37.2346 44.5334L37.2417 44.5298L37.1525 44.3508ZM37.1502 44.3519L37.0681 44.1693L37.0609 44.1729L37.1502 44.3519ZM22.8506 44.352L22.9399 44.1729L22.9327 44.1696L22.8506 44.352ZM22.8483 44.3509L22.7591 44.5301L22.7662 44.5333L22.8483 44.3509ZM18.6716 41.3392L18.8131 41.1979L18.8131 41.1978L18.6716 41.3392ZM18.6717 18.6605L18.8132 18.8019L18.8132 18.8018L18.6717 18.6605ZM41.3291 18.6607L41.1876 18.8021L41.1877 18.8022L41.3291 18.6607ZM44.3198 22.803L44.4986 22.7133L44.4986 22.7133L44.3198 22.803ZM43.7972 24.3757L43.8867 24.5546L43.8868 24.5545L43.7972 24.3757ZM42.2244 23.8531L42.0456 23.9427L42.0456 23.9427L42.2244 23.8531ZM39.6714 20.3175L39.5298 20.4589L39.5299 20.459L39.6714 20.3175ZM20.3301 20.3169L20.4716 20.4583L20.4717 20.4583L20.3301 20.3169ZM20.3299 39.6829L20.4714 39.5415L20.4714 39.5415L20.3299 39.6829ZM22.1988 41.2483L22.0846 41.4124L22.3988 41.6311V41.2483H22.1988ZM37.8022 41.2484H37.6022V41.6312L37.9164 41.4126L37.8022 41.2484ZM39.671 39.6831L39.8125 39.8245L39.8125 39.8245L39.671 39.6831ZM24.5426 42.5557H24.3426V42.687L24.4629 42.7392L24.5426 42.5557ZM35.4585 42.5557L35.5381 42.7392L35.6585 42.687V42.5557H35.4585ZM44.5427 33.2823C43.8211 33.0506 43.0486 33.4468 42.8166 34.1681L43.1974 34.2906C43.3617 33.7798 43.9088 33.4989 44.4204 33.6632L44.5427 33.2823ZM45.4284 35.0084C45.6605 34.2874 45.2641 33.5145 44.5428 33.2824L44.4203 33.6632C44.9313 33.8276 45.212 34.3751 45.0476 34.8858L45.4284 35.0084ZM41.4706 41.4806C43.28 39.6694 44.6484 37.4317 45.4284 35.0084L45.0476 34.8858C44.2872 37.2484 42.9524 39.4313 41.1876 41.1979L41.4706 41.4806ZM37.2417 44.5298C38.8038 43.7519 40.2266 42.726 41.4706 41.4806L41.1876 41.1979C39.9739 42.4129 38.5864 43.4134 37.0634 44.1718L37.2417 44.5298ZM37.2322 44.5343L37.2345 44.5332L37.0705 44.1684L37.0682 44.1695L37.2322 44.5343ZM30.0003 46.226C32.4861 46.226 34.9722 45.6611 37.2394 44.5309L37.0609 44.1729C34.8506 45.2748 32.4257 45.826 30.0003 45.826V46.226ZM22.7614 44.531C25.0284 45.6611 27.5146 46.226 30.0003 46.226V45.826C27.575 45.826 25.1501 45.2748 22.9398 44.173L22.7614 44.531ZM22.7662 44.5333L22.7685 44.5344L22.9327 44.1696L22.9303 44.1685L22.7662 44.5333ZM18.5301 41.4805C19.7741 42.7261 21.197 43.7522 22.7591 44.53L22.9374 44.1719C21.4144 43.4136 20.0268 42.413 18.8131 41.1979L18.5301 41.4805ZM18.5302 18.5191C12.2051 24.8498 12.205 35.1502 18.5301 41.4806L18.8131 41.1978C12.6441 35.0236 12.6441 24.9763 18.8132 18.8019L18.5302 18.5191ZM30.0003 13.7695C25.6631 13.7695 21.5889 15.4566 18.5302 18.5192L18.8132 18.8018C21.7967 15.8145 25.769 14.1695 30.0003 14.1695V13.7695ZM41.4706 18.5194C38.4118 15.4566 34.3376 13.7695 30.0003 13.7695V14.1695C34.2316 14.1695 38.204 15.8145 41.1876 18.8021L41.4706 18.5194ZM44.4986 22.7133C43.7211 21.1621 42.7021 19.7508 41.4705 18.5193L41.1877 18.8022C42.3891 20.0035 43.3827 21.3798 44.141 22.8926L44.4986 22.7133ZM43.8868 24.5545C44.5642 24.215 44.8382 23.3908 44.4986 22.7133L44.141 22.8926C44.3816 23.3725 44.1875 23.9564 43.7076 24.1969L43.8868 24.5545ZM42.0456 23.9427C42.3853 24.6202 43.2095 24.8934 43.8867 24.5546L43.7077 24.1969C43.2277 24.437 42.6438 24.2433 42.4032 23.7634L42.0456 23.9427ZM39.5299 20.459C40.5538 21.4829 41.4002 22.655 42.0456 23.9427L42.4032 23.7635C41.7385 22.4372 40.8668 21.2302 39.8128 20.1761L39.5299 20.459ZM30.0005 16.5132C33.605 16.5132 36.9885 17.9142 39.5298 20.4589L39.8129 20.1762C37.1963 17.5562 33.7109 16.1132 30.0005 16.1132V16.5132ZM20.4717 20.4583C23.0125 17.9142 26.3959 16.5132 30.0005 16.5132V16.1132C26.29 16.1132 22.8047 17.5562 20.1886 20.1756L20.4717 20.4583ZM20.4714 39.5415C15.2149 34.2804 15.2149 25.7196 20.4716 20.4583L20.1887 20.1756C14.7759 25.5931 14.7759 34.407 20.1884 39.8242L20.4714 39.5415ZM22.3131 41.0841C21.6582 40.6284 21.0423 40.113 20.4714 39.5415L20.1884 39.8242C20.776 40.4124 21.4101 40.9431 22.0846 41.4124L22.3131 41.0841ZM21.9988 37.9346V41.2483H22.3988V37.9346H21.9988ZM25.1831 34.7483C23.427 34.7483 21.9988 36.1776 21.9988 37.9346H22.3988C22.3988 36.3983 23.6481 35.1483 25.1831 35.1483V34.7483ZM34.8179 34.7483H25.1831V35.1483H34.8179V34.7483ZM38.0022 37.9346C38.0022 36.1775 36.574 34.7483 34.8179 34.7483V35.1483C36.3529 35.1483 37.6022 36.3982 37.6022 37.9346H38.0022ZM38.0022 41.2484V37.9346H37.6022V41.2484H38.0022ZM39.5295 39.5418C38.9586 40.1133 38.3429 40.6285 37.688 41.0842L37.9164 41.4126C38.5909 40.9432 39.2249 40.4127 39.8125 39.8245L39.5295 39.5418ZM42.8166 34.1681C42.1602 36.2075 41.0546 38.0149 39.5295 39.5418L39.8125 39.8245C41.3821 38.2531 42.5214 36.3909 43.1974 34.2906L42.8166 34.1681ZM24.7426 42.5557V37.9346H24.3426V42.5557H24.7426ZM35.3788 42.3723C31.964 43.8544 28.0369 43.8544 24.6222 42.3723L24.4629 42.7392C27.9792 44.2655 32.0217 44.2655 35.5381 42.7392L35.3788 42.3723ZM35.2585 37.9346V42.5557H35.6585V37.9346H35.2585ZM34.8179 37.492C35.0601 37.492 35.2585 37.6902 35.2585 37.9346H35.6585C35.6585 37.4704 35.2822 37.092 34.8179 37.092V37.492ZM25.1831 37.492H34.8179V37.092H25.1831V37.492ZM24.7426 37.9346C24.7426 37.6902 24.941 37.492 25.1831 37.492V37.092C24.7189 37.092 24.3426 37.4704 24.3426 37.9346H24.7426ZM23.1926 27.5661C23.1926 31.3233 26.2463 34.3799 30.0007 34.3799V33.9799C26.4676 33.9799 23.5926 31.1027 23.5926 27.5661H23.1926ZM30.0007 20.7521C26.2463 20.7521 23.1926 23.8088 23.1926 27.5661H23.5926C23.5926 24.0294 26.4676 21.1521 30.0007 21.1521V20.7521ZM36.8088 27.5661C36.8088 23.8088 33.755 20.7521 30.0007 20.7521V21.1521C33.5338 21.1521 36.4088 24.0294 36.4088 27.5661H36.8088ZM30.0007 34.3799C33.755 34.3799 36.8088 31.3233 36.8088 27.5661H36.4088C36.4088 31.1027 33.5338 33.9799 30.0007 33.9799V34.3799ZM34.0649 27.5661C34.0649 29.8104 32.2412 31.6362 30.0005 31.6362V32.0362C32.4626 32.0362 34.4649 30.0308 34.4649 27.5661H34.0649ZM30.0005 23.4959C32.2412 23.4959 34.0649 25.3218 34.0649 27.5661H34.4649C34.4649 25.1014 32.4626 23.0959 30.0005 23.0959V23.4959ZM25.9362 27.5661C25.9362 25.3216 27.7599 23.4959 30.0005 23.4959V23.0959C27.5385 23.0959 25.5362 25.1012 25.5362 27.5661H25.9362ZM30.0005 31.6362C27.7599 31.6362 25.9362 29.8103 25.9362 27.5661H25.5362C25.5362 30.0307 27.5385 32.0362 30.0005 32.0362V31.6362Z" fill="white" mask="url(#path-5-inside-1)"/>
</svg>
