<svg width="60" height="60" viewBox="0 0 60 60" fill="none" xmlns="http://www.w3.org/2000/svg">
<path d="M8.11009 47.0651L8.16246 47.1323L8.23709 47.0913C8.9387 46.7057 9.72963 46.5003 10.5528 46.5003C11.841 46.5003 13.0515 47.0015 13.9625 47.9125L14.0332 47.8418L13.9625 47.9125C14.8734 48.823 15.3747 50.034 15.3747 51.3217C15.3747 52.6099 14.8734 53.8209 13.9625 54.7314L14.0332 54.8021L13.9625 54.7314C13.0515 55.6424 11.841 56.1441 10.5528 56.1441C9.26466 56.1441 8.05414 55.6424 7.14363 54.7314L7.1436 54.7314C6.23264 53.8209 5.73095 52.6103 5.73095 51.3222C5.73095 50.3554 6.0135 49.4327 6.53894 48.6477L6.57944 48.5872L6.5343 48.5301C2.38123 43.2743 0.1 36.7181 0.1 30C0.1 22.0134 3.21004 14.5049 8.85748 8.85748C14.5049 3.21004 22.0134 0.1 30 0.1C32.003 0.1 34.0054 0.299386 35.9521 0.692641C36.5325 0.810311 36.9076 1.37559 36.7904 1.95591C36.6732 2.5362 36.1071 2.91136 35.5276 2.79414L35.5078 2.89215L35.5276 2.79413C33.7202 2.42888 31.8605 2.24375 30 2.24375C14.6948 2.24375 2.24375 14.6948 2.24375 30C2.24375 36.1788 4.32258 42.2099 8.11009 47.0651ZM10.5528 54.0003C11.2678 54.0003 11.941 53.7215 12.4464 53.2157C12.9522 52.7099 13.231 52.0372 13.231 51.3222C13.231 50.6067 12.9522 49.934 12.4464 49.4282L12.4463 49.4282C11.9405 48.9228 11.2678 48.6441 10.5528 48.6441C9.83788 48.6441 9.16467 48.9223 8.65927 49.4282C8.15348 49.934 7.8747 50.6067 7.8747 51.3222C7.8747 52.0372 8.1535 52.7099 8.6593 53.2157C9.1651 53.7215 9.83781 54.0003 10.5528 54.0003Z" fill="black" stroke="white" stroke-width="0.2"/>
<path d="M24.1043 59.3187C26.0328 59.7042 28.0166 59.8999 29.9999 59.8999C37.9866 59.8999 45.495 56.7899 51.1424 51.1424C56.7899 45.495 59.8999 37.9865 59.8999 29.9999C59.8999 23.2814 57.6183 16.7247 53.4647 11.4685L53.5432 11.4065L53.46 11.351C54.7081 9.47864 54.5074 6.91868 52.8568 5.26809C51.9458 4.35755 50.7353 3.85586 49.4471 3.85586C48.1589 3.85586 46.9484 4.35755 46.0374 5.26809C45.1265 6.17904 44.6252 7.38956 44.6252 8.67773C44.6252 9.96592 45.1265 11.1764 46.0374 12.0874C46.9484 12.9984 48.1589 13.4996 49.4471 13.4996C50.2703 13.4996 51.0612 13.2942 51.7628 12.9086L51.8375 12.8676L51.8898 12.9348C55.6773 17.7904 57.7562 23.8211 57.7562 29.9999C57.7562 45.3051 45.3051 57.7562 29.9999 57.7562C28.1578 57.7562 26.3156 57.5747 24.5251 57.2163C23.9449 57.1004 23.38 57.4768 23.2636 58.0571M24.1043 59.3187C24.1043 59.3187 24.1044 59.3187 24.1044 59.3187L24.0847 59.4167L24.1043 59.3187ZM24.1043 59.3187C23.524 59.2022 23.1476 58.6378 23.2636 58.0571M23.2636 58.0571L23.1655 58.0375L23.2636 58.0571C23.2636 58.0571 23.2636 58.0571 23.2636 58.0571ZM51.3411 6.78422L51.3411 6.78421C50.8353 6.2784 50.1621 5.99961 49.4471 5.99961C48.7321 5.99961 48.059 6.27838 47.5536 6.78421C47.0478 7.29001 46.769 7.96272 46.769 8.67773C46.769 9.3932 47.0478 10.0659 47.5536 10.5717C48.0589 11.0771 48.7317 11.3559 49.4471 11.3559C50.1621 11.3559 50.8353 11.0771 51.3411 10.5718L51.3411 10.5717C52.3849 9.5274 52.3849 7.82852 51.3411 6.78422Z" fill="black" stroke="white" stroke-width="0.2"/>
<mask id="path-3-inside-1" fill="white">
<path d="M25.1641 50.1562C25.1641 50.8035 25.6891 51.3281 26.3359 51.3281H33.6634C34.3106 51.3281 34.8352 50.8035 34.8352 50.1562V47.8844C36.3761 47.4696 37.8492 46.859 39.2334 46.0616L40.8374 47.6656C41.0572 47.8853 41.3552 48.0089 41.6664 48.0089C41.9768 48.0089 42.2753 47.8853 42.495 47.6651L47.6741 42.4823C48.1314 42.0245 48.1314 41.2825 47.6741 40.8252L46.072 39.223C46.8694 37.8387 47.48 36.3657 47.8948 34.8248H50.158C50.8052 34.8248 51.3298 34.3002 51.3298 33.653V26.3255C51.3298 25.6783 50.8052 25.1537 50.158 25.1537H47.8943C47.4796 23.6133 46.8694 22.1402 46.072 20.7559L47.6654 19.1624C47.8852 18.9427 48.0088 18.6443 48.0088 18.3334C48.0083 18.0226 47.8847 17.7242 47.665 17.5044L42.4817 12.3253C42.0244 11.868 41.2824 11.868 40.8246 12.3257L39.2334 13.9174C37.8492 13.12 36.3761 12.5093 34.8352 12.0946V9.84375C34.8352 9.19647 34.3106 8.67188 33.6634 8.67188H26.3359C25.6891 8.67188 25.1641 9.19647 25.1641 9.84375V12.095C23.6237 12.5093 22.1506 13.12 20.7663 13.9174L19.1747 12.3257C18.7174 11.8684 17.9753 11.868 17.5176 12.3253L12.3348 17.5049C12.1146 17.7246 11.991 18.0226 11.991 18.3334C11.991 18.6443 12.1146 18.9427 12.3343 19.1624L13.9278 20.7559C13.1304 22.1402 12.5197 23.6128 12.105 25.1537H9.84592C9.19864 25.1537 8.67404 25.6783 8.67404 26.3251L8.66992 33.6525C8.66947 33.9633 8.79306 34.2618 9.01279 34.4815C9.23251 34.7012 9.53052 34.8248 9.8418 34.8248H12.105C12.5197 36.3657 13.1304 37.8387 13.9278 39.223L12.3256 40.8252C11.8683 41.2825 11.8679 42.0245 12.3256 42.4823L17.5048 47.6651C17.7245 47.8848 18.0225 48.0089 18.3333 48.0089H18.3338C18.6446 48.0089 18.9426 47.8853 19.1623 47.6656L20.7659 46.0616C22.1506 46.859 23.6237 47.4696 25.1641 47.8844V50.1562ZM21.2255 43.597C20.7618 43.2971 20.1516 43.3621 19.7606 43.7526L18.3338 45.1794L14.8113 41.6542L16.2368 40.2283C16.6272 39.8378 16.6922 39.2276 16.3924 38.7639C15.3299 37.1196 14.5829 35.3174 14.1727 33.4067C14.0564 32.867 13.5794 32.4811 13.0269 32.4811H11.0141L11.0169 27.4974H13.0269C13.5794 27.4974 14.0564 27.112 14.1727 26.5718C14.5829 24.6616 15.3299 22.8593 16.3924 21.2151C16.6922 20.7513 16.6272 20.1411 16.2368 19.7507L14.8204 18.3339L18.3457 14.8114L19.7606 16.2268C20.1516 16.6173 20.7613 16.6818 21.2255 16.3824C22.8693 15.32 24.6715 14.5729 26.5822 14.1628C27.1219 14.0465 27.5078 13.569 27.5078 13.017V11.0156H32.4915V13.0165C32.4915 13.569 32.8769 14.0465 33.4171 14.1623C35.3273 14.5729 37.13 15.3195 38.7738 16.382C39.2375 16.6818 39.8477 16.6173 40.2382 16.2263L41.6536 14.8114L45.1789 18.3339L43.7625 19.7502C43.3716 20.1411 43.3071 20.7513 43.6069 21.2151C44.6694 22.8593 45.416 24.6616 45.8266 26.5718C45.9424 27.112 46.4199 27.4974 46.9724 27.4974H48.9861V32.4811H46.9724C46.4199 32.4811 45.9429 32.867 45.8266 33.4067C45.4164 35.3169 44.6694 37.1196 43.6069 38.7634C43.3071 39.2276 43.3721 39.8378 43.7625 40.2283L45.188 41.6537L41.6655 45.179L40.2387 43.7526C39.8477 43.3617 39.2375 43.2971 38.7738 43.597C37.1295 44.6594 35.3273 45.406 33.4171 45.8167C32.8769 45.9329 32.4915 46.4099 32.4915 46.9624V48.9844H27.5078V46.9624C27.5078 46.4104 27.1219 45.9329 26.5822 45.8167C24.672 45.4065 22.8698 44.6594 21.2255 43.597V43.597Z"/>
</mask>
<path d="M25.1641 50.1562C25.1641 50.8035 25.6891 51.3281 26.3359 51.3281H33.6634C34.3106 51.3281 34.8352 50.8035 34.8352 50.1562V47.8844C36.3761 47.4696 37.8492 46.859 39.2334 46.0616L40.8374 47.6656C41.0572 47.8853 41.3552 48.0089 41.6664 48.0089C41.9768 48.0089 42.2753 47.8853 42.495 47.6651L47.6741 42.4823C48.1314 42.0245 48.1314 41.2825 47.6741 40.8252L46.072 39.223C46.8694 37.8387 47.48 36.3657 47.8948 34.8248H50.158C50.8052 34.8248 51.3298 34.3002 51.3298 33.653V26.3255C51.3298 25.6783 50.8052 25.1537 50.158 25.1537H47.8943C47.4796 23.6133 46.8694 22.1402 46.072 20.7559L47.6654 19.1624C47.8852 18.9427 48.0088 18.6443 48.0088 18.3334C48.0083 18.0226 47.8847 17.7242 47.665 17.5044L42.4817 12.3253C42.0244 11.868 41.2824 11.868 40.8246 12.3257L39.2334 13.9174C37.8492 13.12 36.3761 12.5093 34.8352 12.0946V9.84375C34.8352 9.19647 34.3106 8.67188 33.6634 8.67188H26.3359C25.6891 8.67188 25.1641 9.19647 25.1641 9.84375V12.095C23.6237 12.5093 22.1506 13.12 20.7663 13.9174L19.1747 12.3257C18.7174 11.8684 17.9753 11.868 17.5176 12.3253L12.3348 17.5049C12.1146 17.7246 11.991 18.0226 11.991 18.3334C11.991 18.6443 12.1146 18.9427 12.3343 19.1624L13.9278 20.7559C13.1304 22.1402 12.5197 23.6128 12.105 25.1537H9.84592C9.19864 25.1537 8.67404 25.6783 8.67404 26.3251L8.66992 33.6525C8.66947 33.9633 8.79306 34.2618 9.01279 34.4815C9.23251 34.7012 9.53052 34.8248 9.8418 34.8248H12.105C12.5197 36.3657 13.1304 37.8387 13.9278 39.223L12.3256 40.8252C11.8683 41.2825 11.8679 42.0245 12.3256 42.4823L17.5048 47.6651C17.7245 47.8848 18.0225 48.0089 18.3333 48.0089H18.3338C18.6446 48.0089 18.9426 47.8853 19.1623 47.6656L20.7659 46.0616C22.1506 46.859 23.6237 47.4696 25.1641 47.8844V50.1562ZM21.2255 43.597C20.7618 43.2971 20.1516 43.3621 19.7606 43.7526L18.3338 45.1794L14.8113 41.6542L16.2368 40.2283C16.6272 39.8378 16.6922 39.2276 16.3924 38.7639C15.3299 37.1196 14.5829 35.3174 14.1727 33.4067C14.0564 32.867 13.5794 32.4811 13.0269 32.4811H11.0141L11.0169 27.4974H13.0269C13.5794 27.4974 14.0564 27.112 14.1727 26.5718C14.5829 24.6616 15.3299 22.8593 16.3924 21.2151C16.6922 20.7513 16.6272 20.1411 16.2368 19.7507L14.8204 18.3339L18.3457 14.8114L19.7606 16.2268C20.1516 16.6173 20.7613 16.6818 21.2255 16.3824C22.8693 15.32 24.6715 14.5729 26.5822 14.1628C27.1219 14.0465 27.5078 13.569 27.5078 13.017V11.0156H32.4915V13.0165C32.4915 13.569 32.8769 14.0465 33.4171 14.1623C35.3273 14.5729 37.13 15.3195 38.7738 16.382C39.2375 16.6818 39.8477 16.6173 40.2382 16.2263L41.6536 14.8114L45.1789 18.3339L43.7625 19.7502C43.3716 20.1411 43.3071 20.7513 43.6069 21.2151C44.6694 22.8593 45.416 24.6616 45.8266 26.5718C45.9424 27.112 46.4199 27.4974 46.9724 27.4974H48.9861V32.4811H46.9724C46.4199 32.4811 45.9429 32.867 45.8266 33.4067C45.4164 35.3169 44.6694 37.1196 43.6069 38.7634C43.3071 39.2276 43.3721 39.8378 43.7625 40.2283L45.188 41.6537L41.6655 45.179L40.2387 43.7526C39.8477 43.3617 39.2375 43.2971 38.7738 43.597C37.1295 44.6594 35.3273 45.406 33.4171 45.8167C32.8769 45.9329 32.4915 46.4099 32.4915 46.9624V48.9844H27.5078V46.9624C27.5078 46.4104 27.1219 45.9329 26.5822 45.8167C24.672 45.4065 22.8698 44.6594 21.2255 43.597V43.597Z" fill="black" stroke="white" stroke-width="0.4" mask="url(#path-3-inside-1)"/>
<path d="M29.9995 20.4169C35.2836 20.4169 39.5826 24.7158 39.5826 30C39.5826 35.2841 35.2836 39.583 29.9995 39.583C24.7154 39.583 20.4164 35.2841 20.4164 30C20.4164 24.7158 24.7154 20.4169 29.9995 20.4169ZM29.9995 22.5606C25.8972 22.5606 22.5602 25.8977 22.5602 30C22.5602 34.1023 25.8972 37.4393 29.9995 37.4393C34.1018 37.4393 37.4388 34.1018 37.4388 30C37.4388 25.8981 34.1018 22.5606 29.9995 22.5606Z" fill="#4414DA" stroke="white" stroke-width="0.2"/>
<path d="M41.5487 4.01813C41.3496 4.21723 41.0729 4.33204 40.791 4.33204C40.5083 4.33204 40.2329 4.21727 40.0337 4.01808C39.8339 3.8174 39.7191 3.54153 39.7191 3.25879C39.7191 2.97749 39.8339 2.70161 40.0337 2.50088C40.2329 2.30169 40.5082 2.18691 40.791 2.18691C41.0729 2.18691 41.3496 2.30174 41.5488 2.50087C41.7485 2.70148 41.8629 2.97869 41.8629 3.25879C41.8629 3.54066 41.7481 3.81746 41.5487 4.01813Z" fill="black" stroke="white" stroke-width="0.2"/>
<path d="M18.5039 56.0029C18.703 55.8037 18.9802 55.6889 19.2617 55.6889C19.5432 55.6889 19.8204 55.8037 20.0196 56.0029C20.2187 56.2021 20.3336 56.4792 20.3336 56.7607C20.3336 57.0423 20.2187 57.3194 20.0196 57.5186C19.8204 57.7177 19.5432 57.8326 19.2617 57.8326C18.9802 57.8326 18.703 57.7177 18.5039 57.5186C18.3047 57.3194 18.1898 57.0436 18.1898 56.7607C18.1898 56.4792 18.3047 56.2021 18.5039 56.0029Z" fill="black" stroke="white" stroke-width="0.2"/>
</svg>
