<?xml version="1.0" encoding="utf-8"?><svg viewBox="0 0 200 66" xmlns="http://www.w3.org/2000/svg" xmlns:xlink="http://www.w3.org/1999/xlink"><style>:root>svg{display:none}:root>svg:target{display:block}</style><svg fill="none" viewBox="0 0 60 60" id="battery" xmlns="http://www.w3.org/2000/svg"><g clip-path="url(#aclip0)" stroke="#E8E8E8" stroke-width=".2"><path d="M27.91 35.778v-.1h-4.564a1.072 1.072 0 01-.925-1.614l7.671-13.062a1.072 1.072 0 011.206-.491h0c.467.127.79.55.79 1.034v8.08H36.653a1.072 1.072 0 01.924 1.614L29.907 44.3a1.072 1.072 0 01-1.997-.542v-7.98zm2.035-9.923v-.368l-.187.317-4.451 7.58-.089.15H28.983c.591 0 1.071.48 1.071 1.072v5.21l.186-.317 4.452-7.58.088-.15h-3.764c-.592 0-1.071-.48-1.071-1.073v-4.841z" fill="#4414DA"/><path d="M45.25 33.823v-.1h-1.342a1.072 1.072 0 110-2.143h1.342v-1.342a1.072 1.072 0 112.143 0v1.342h1.342a1.072 1.072 0 010 2.143h-1.342v1.342a1.072 1.072 0 01-2.144 0v-1.242zM16.092 33.723h-4.826a1.072 1.072 0 110-2.143h4.826a1.072 1.072 0 110 2.143z" fill="#333"/><path d="M53.231 9.457v.1H58.828c.592 0 1.072.48 1.072 1.072v6.126c0 .592-.48 1.072-1.072 1.072h-2.414V47.476h2.414c.592 0 1.072.48 1.072 1.072v6.126c0 .592-.48 1.072-1.072 1.072H1.172C.58 55.746.1 55.266.1 54.674v-6.126c0-.592.48-1.072 1.072-1.072h2.414V17.826H1.172C.58 17.827.1 17.347.1 16.756v-6.126c0-.592.48-1.072 1.072-1.072H6.769V5.327c0-.593.48-1.073 1.072-1.073h11.675c.592 0 1.072.48 1.072 1.072V9.556h4.114a1.072 1.072 0 010 2.144H2.244v3.983h55.512V11.7H35.298a1.072 1.072 0 010-2.143h4.114V5.327c0-.593.48-1.073 1.072-1.073h11.675c.592 0 1.072.48 1.072 1.072v4.13zm-11.675 0v.1H51.087V6.398H41.556v3.059zM9.013 6.398h-.1V9.557H18.444V6.398H9.013zm48.643 47.204h.1V49.62H2.244v3.983h55.412zm-3.485-6.126h.1V17.826H5.729V47.477h48.442z" fill="#333"/><path d="M29.031 11.038h0c.17.407.584.678 1.024.662.441-.015.839-.31.98-.727h0a1.08 1.08 0 00-.348-1.184m-1.656 1.25l.424-1.32c.382-.237.88-.207 1.232.07m-1.656 1.25a1.082 1.082 0 01.424-1.32l-.424 1.32zm1.656-1.25l.062-.078m-.062.078l.062-.078m0 0c.384.302.539.832.381 1.294l-1.728-1.372a1.183 1.183 0 011.347.078z" fill="#333"/></g><defs><clipPath id="aclip0"><path fill="#fff" d="M0 0h60v60H0z"/></clipPath></defs></svg><svg fill="none" viewBox="0 0 60 60" id="chart" xmlns="http://www.w3.org/2000/svg"><g clip-path="url(#bclip0)"><path d="M55.161 5.696H4.839A4.845 4.845 0 000 10.536v43.928c0 2.669 2.17 4.84 4.839 4.84h50.322A4.844 4.844 0 0060 54.463V10.535c0-2.668-2.17-4.839-4.839-4.839zm3.081 48.769a3.085 3.085 0 01-3.081 3.08H4.839a3.085 3.085 0 01-3.081-3.08v-43.93a3.085 3.085 0 013.081-3.08h50.322a3.085 3.085 0 013.081 3.08v43.93z" fill="#000"/><path d="M53.398 10.469H15.276a.879.879 0 100 1.758h38.122c.41 0 .743.333.743.742v39.733c0 .409-.334.742-.743.742H6.602a.744.744 0 01-.743-.742V12.969c0-.41.334-.742.743-.742h4.565a.879.879 0 100-1.758H6.602a2.503 2.503 0 00-2.5 2.5v39.733c0 1.378 1.121 2.5 2.5 2.5h46.796c1.379 0 2.5-1.122 2.5-2.5V12.969c0-1.378-1.121-2.5-2.5-2.5z" fill="#000"/><path d="M34.257 27.177L26.35 24.26a2.54 2.54 0 00-2.334.301L9.29 34.865a.879.879 0 101.008 1.44l14.728-10.303a.782.782 0 01.717-.093l7.906 2.917c.78.288 1.652.175 2.334-.301l11.345-7.938-.27 2.387a.879.879 0 001.746.198l.49-4.323a.882.882 0 00-.763-.97l-4.317-.543a.88.88 0 00-.22 1.744l2.054.258-11.073 7.746a.78.78 0 01-.717.093z" fill="#4414DA"/><path d="M17.303 40.976h-3.206c-.906 0-1.643.737-1.643 1.642v3.651h-2.66a.879.879 0 100 1.758h40.414a.879.879 0 100-1.758h-2.66v-8.92a.879.879 0 10-1.757 0v8.92h-2.976V29.98h2.976v3.26a.879.879 0 101.757 0v-3.375c0-.906-.736-1.643-1.642-1.643H42.7c-.906 0-1.643.737-1.643 1.643v16.405h-3.043v-7.737c0-.906-.737-1.643-1.643-1.643h-3.206c-.905 0-1.642.737-1.642 1.642v7.738H28.48V34.525c0-.906-.737-1.643-1.643-1.643H23.63c-.906 0-1.643.737-1.643 1.643V46.27h-3.043v-3.652c0-.905-.737-1.642-1.642-1.642zm-3.091 1.758h2.976v3.535h-2.976v-3.535zm19.069-4.087h2.975v7.623h-2.975v-7.623zm-9.535-4.007h2.976v11.63h-2.976V34.64z" fill="#000"/></g><defs><clipPath id="bclip0"><path fill="#fff" d="M0 0h60v60H0z"/></clipPath></defs></svg><svg fill="none" viewBox="0 0 22 17" id="email" xmlns="http://www.w3.org/2000/svg"><path d="M2.112 5.24c.278.193 1.117.767 2.516 1.72 1.4.954 2.472 1.689 3.217 2.204.082.056.255.18.521.368.266.19.487.343.663.46.176.116.39.247.639.391.25.145.485.254.706.326.22.073.425.109.614.109h.024c.189 0 .393-.036.614-.109.221-.072.457-.18.706-.325.25-.146.462-.276.638-.393.176-.116.397-.27.663-.459.266-.19.44-.312.522-.368l5.746-3.924a5.783 5.783 0 001.497-1.485c.402-.58.602-1.187.602-1.823 0-.531-.195-.986-.583-1.365A1.914 1.914 0 0020.036 0H1.964C1.334 0 .85.21.51.628.17 1.046 0 1.57 0 2.198c0 .506.225 1.056.675 1.648.45.591.93 1.056 1.437 1.394z" fill="#4414DA"/><path d="M20.772 6.532c-2.684 1.787-4.722 3.175-6.113 4.165-.467.338-.845.602-1.136.791-.29.19-.677.383-1.16.58-.483.197-.933.296-1.35.296h-.025c-.418 0-.868-.099-1.35-.296a7.052 7.052 0 01-1.16-.58c-.291-.189-.67-.453-1.136-.79C6.237 9.9 4.202 8.511 1.24 6.531A6.474 6.474 0 010 5.482v9.586c0 .532.192.986.577 1.364.385.379.847.568 1.387.568h18.072c.54 0 1.002-.19 1.387-.568.385-.378.577-.832.577-1.364V5.48a6.737 6.737 0 01-1.228 1.05z" fill="#4414DA"/></svg><svg fill="none" viewBox="0 0 60 60" id="giftbox" xmlns="http://www.w3.org/2000/svg"><g clip-path="url(#dclip0)"><path d="M59.074 12.107H54.19a5.088 5.088 0 00.623-4.707l-1.48-3.98A5.082 5.082 0 0050.487.49a5.085 5.085 0 00-4.086.117L34.686 6.17a3.517 3.517 0 00-2.052-.659h-5.268a3.52 3.52 0 00-2.052.66L13.598.605A5.087 5.087 0 009.512.49 5.082 5.082 0 006.67 3.42L5.189 7.4a5.085 5.085 0 00.623 4.707H.926a.926.926 0 00-.926.926v6.666a.926.926 0 001.852 0v-5.74h6.432c.103.035.208.069.313.098l7.775 2.14a61.853 61.853 0 00-4.557 8.317H1.852v-1.111a.926.926 0 00-1.852 0v2.037c0 .512.415.926.926.926h3.302V59.15c0 .512.415.926.926.926h49.692a.926.926 0 00.926-.926v-5.377a.926.926 0 00-1.852 0v4.452H35.556v-31.29a49.589 49.589 0 015.215 15.953.926.926 0 001.656.423 51.623 51.623 0 003.687-5.63 52.773 52.773 0 015.412 4.233.926.926 0 001.532-.826 62.11 62.11 0 00-4.071-14.722h4.932V50.07a.926.926 0 101.852 0V26.366h3.303A.926.926 0 0060 25.44V13.033a.925.925 0 00-.926-.926zM47.196 2.279a3.188 3.188 0 012.595-.074 3.183 3.183 0 011.805 1.86l1.48 3.98a3.186 3.186 0 01-.153 2.59 3.183 3.183 0 01-2.011 1.636l-14.74 4.058v-4.45C39.484 9.85 47.744 5.666 49.8 8.568a.926.926 0 101.511-1.07c-1.586-2.24-4.93-2.35-9.938-.324-2.063.834-3.968 1.852-5.202 2.559v-.684a3.52 3.52 0 00-.288-1.397l11.313-5.373zm-19.83 5.085h5.268c.93 0 1.685.756 1.685 1.685v7.654c0 .93-.756 1.686-1.685 1.686h-5.268c-.93 0-1.685-.756-1.685-1.686V9.05c0-.93.756-1.685 1.685-1.685zm-1.556 17.15a49.409 49.409 0 012.887-4.273h2.605a49.204 49.204 0 012.888 4.273h-8.38zM7.077 10.634a3.187 3.187 0 01-.153-2.59l1.481-3.979a3.181 3.181 0 011.805-1.86 3.187 3.187 0 012.594.074l11.313 5.374c-.185.428-.288.9-.288 1.397v.736c-1.23-.708-3.177-1.756-5.293-2.612-5.008-2.025-8.352-1.917-9.939.323a.926.926 0 101.511 1.07C12.183 5.639 20.58 9.93 23.83 11.936v4.394l-14.74-4.057a3.185 3.185 0 01-2.012-1.637zm17.168 7.73a3.552 3.552 0 002.235 1.764 51.52 51.52 0 00-8.71 20.283 50.707 50.707 0 01-2.746-4.5.924.924 0 00-1.32-.335 53.638 53.638 0 00-4.51 3.294 60.5 60.5 0 019.054-22.156l5.997 1.65zM6.08 26.367h4.933a62.125 62.125 0 00-4.071 14.722.926.926 0 001.532.826 52.73 52.73 0 015.413-4.234 51.598 51.598 0 003.686 5.63.926.926 0 001.655-.422 49.615 49.615 0 015.216-15.952v31.289H6.081V26.366zm20.216 31.859V26.366h7.408v31.859h-7.408zm20-22.649a.925.925 0 00-1.32.335 50.611 50.611 0 01-2.745 4.5 51.506 51.506 0 00-8.712-20.283c.968-.25 1.776-.9 2.237-1.763l5.997-1.651a60.533 60.533 0 019.054 22.156 53.729 53.729 0 00-4.51-3.294zm11.852-11.062h-9.963a61.896 61.896 0 00-4.555-8.317l7.773-2.14c.106-.03.21-.063.313-.099h6.432v10.556z" fill="#333"/><rect x="25" y="6.4" width="10" height="13" rx="4" stroke="#4414DA" stroke-width="2"/></g><defs><clipPath id="dclip0"><path fill="#fff" d="M0 0h60v60H0z"/></clipPath></defs></svg><svg fill="none" viewBox="0 0 14 14" id="icon-close" xmlns="http://www.w3.org/2000/svg"><path d="M13.298.71a.996.996 0 00-1.41 0l-4.89 4.88L2.108.7a.997.997 0 10-1.41 1.41L5.588 7l-4.89 4.89a.997.997 0 001.41 1.41l4.89-4.89 4.89 4.89a.997.997 0 001.41-1.41L8.408 7l4.89-4.89c.38-.38.38-1.02 0-1.4z" fill="#000"/></svg><svg fill="none" viewBox="0 0 8 15" id="icon-fb" xmlns="http://www.w3.org/2000/svg"><path d="M6.54 2.49H8V.107A20.101 20.101 0 005.872 0c-4.62 0-3.364 4.906-3.548 5.625H0v2.666h2.324V15h2.849V8.292h2.23l.354-2.666H5.172C5.298 3.86 4.665 2.49 6.54 2.49z" fill="var(--icon-color, black)"/></svg><svg fill="none" viewBox="0 0 15 15" id="icon-ig" xmlns="http://www.w3.org/2000/svg"><path d="M7.5.007C4.428.007 1.511-.266.397 2.592c-.46 1.18-.394 2.712-.394 4.907 0 1.926-.061 3.736.394 4.907 1.111 2.859 4.052 2.585 7.101 2.585 2.942 0 5.975.306 7.103-2.585.461-1.193.393-2.702.393-4.907 0-2.927.162-4.816-1.258-6.235C12.296-.173 10.351.007 7.495.007H7.5zm-.672 1.35c6.408-.01 7.224-.722 6.774 9.167-.16 3.497-2.825 3.113-6.101 3.113-5.973 0-6.145-.17-6.145-6.141 0-6.04.474-6.135 5.472-6.14v.001zm4.674 1.244a.9.9 0 100 1.798.9.9 0 000-1.798zM7.5 3.65a3.848 3.848 0 100 7.694 3.847 3.847 0 100-7.693zm0 1.35c3.304 0 3.308 4.995 0 4.995-3.303 0-3.308-4.994 0-4.994z" fill="var(--icon-color, black)"/></svg><svg fill="none" viewBox="0 0 66 66" id="icon-mouse" xmlns="http://www.w3.org/2000/svg"><path d="M33 62.333A18.333 18.333 0 0114.665 44V22a18.334 18.334 0 0136.667 0v22a18.333 18.333 0 01-18.334 18.333zm0-55A14.666 14.666 0 0018.332 22v22a14.666 14.666 0 1029.333 0V22A14.667 14.667 0 0032.999 7.333z" fill="#fff"/><path d="M33 27.5a1.833 1.833 0 01-1.834-1.833v-7.334a1.833 1.833 0 013.667 0v7.334a1.833 1.833 0 01-1.834 1.833z" fill="#fff"/></svg><svg fill="none" viewBox="0 0 15 12" id="icon-tw" xmlns="http://www.w3.org/2000/svg"><path d="M13.47 3.384c0-.134-.005-.263-.011-.391A6.086 6.086 0 0015 1.42c-.558.24-1.152.4-1.772.477A3.02 3.02 0 0014.581.225a6.212 6.212 0 01-1.95.733A3.103 3.103 0 0010.385 0C8.682 0 7.312 1.36 7.312 3.028c0 .24.02.471.071.69A8.752 8.752 0 011.044.552a3.018 3.018 0 00-.42 1.53 3.02 3.02 0 001.365 2.517A3.076 3.076 0 01.6 4.225v.033c0 1.472 1.066 2.694 2.464 2.976a3.3 3.3 0 01-1.388.048 3.1 3.1 0 002.873 2.11 6.243 6.243 0 01-3.813 1.29c-.252 0-.494-.01-.736-.04A8.759 8.759 0 004.718 12c5.658 0 8.752-4.615 8.752-8.616z" fill="var(--icon-color, black)"/></svg><svg fill="none" viewBox="0 0 15 9" id="icon-vk" xmlns="http://www.w3.org/2000/svg"><path d="M12.447 5.16c-.243-.314-.173-.454 0-.736.003-.003 2.005-2.848 2.211-3.813h.001c.103-.353 0-.611-.495-.611h-1.64c-.418 0-.61.222-.713.47 0 0-.835 2.056-2.017 3.388-.38.385-.557.509-.765.509-.103 0-.262-.123-.262-.475V.61c0-.422-.117-.61-.463-.61H5.726c-.262 0-.418.197-.418.38 0 .4.59.492.652 1.617v2.44c0 .535-.094.634-.304.634-.557 0-1.91-2.064-2.712-4.427-.162-.458-.32-.643-.74-.643H.561C.094 0 0 .222 0 .47c0 .438.557 2.618 2.592 5.498C3.95 7.935 5.86 9 7.596 9c1.045 0 1.172-.237 1.172-.643 0-1.879-.094-2.056.429-2.056.242 0 .66.123 1.635 1.071C11.946 8.497 12.129 9 12.753 9h1.64c.468 0 .704-.237.568-.703-.312-.982-2.42-3.001-2.514-3.136z" fill="var(--icon-color, black)"/></svg><svg fill="none" viewBox="0 0 15 11" id="icon-yt" xmlns="http://www.w3.org/2000/svg"><path d="M.336 9.303c.306 1.125 1.242 1.33 1.304 1.37 1.541.435 10.178.437 11.742 0 1.07-.32 1.268-1.305 1.304-1.37.408-2.249.435-5.18-.018-7.732l.018.126C14.38.572 13.444.367 13.382.327c-1.52-.428-10.18-.444-11.742 0C.57.649.373 1.633.336 1.697c-.437 2.364-.459 5.075 0 7.606zm5.675-1.44v-4.72l3.913 2.364-3.913 2.357z" fill="var(--icon-color, black)"/></svg><svg fill="none" viewBox="0 0 200 63" id="logo" xmlns="http://www.w3.org/2000/svg"><g clip-path="url(#lclip0)" fill="#fff"><path d="M47.879 13.495v13.246h-3.826v-2.314a12.248 12.248 0 01-7.678 2.542c-3.516 0-6.822-1.246-6.85-6.14l.044-7.334h3.851v5.873c0 2.803.93 4.27 4.096 4.27 2.574 0 5.349-1.327 6.537-2.72v-7.423h3.826zM63.594 21.592a18.167 18.167 0 00-5.609-.81c-2.865 0-4.589.495-4.589 1.844 0 1.396 1.277 1.508 3.268 1.508a19.587 19.587 0 006.918-1.508v-1.034h.012zm3.848-1.53v6.68h-3.848V25.1a17.606 17.606 0 01-8.015 1.869c-3.693 0-5.997-1.193-5.997-4.184 0-3.427 3.758-4.52 7.944-4.52 2.06-.018 4.109.297 6.068.934 0-2.517-3.224-2.72-5.014-2.72a21.92 21.92 0 00-6.536.966l-1.367-2.803a25.697 25.697 0 018.08-1.374c5.507 0 8.642 1.776 8.682 6.791l.004.003zM87.5 19.411l-.059 7.33h-3.839v-5.869c0-2.803-.93-4.27-4.096-4.27-2.573 0-5.349 1.326-6.536 2.719v7.42h-3.823V13.495h3.826v2.318a12.23 12.23 0 017.677-2.542c3.517 0 6.822 1.246 6.853 6.14H87.5zM95.503 16.713v3.823c0 2.564.49 3.215 2.819 3.215a19.394 19.394 0 003.426-.225v3.116a25.616 25.616 0 01-4.5.34c-3.41 0-5.596-1.284-5.596-4.206v-6.063h-3.46v-3.218h3.47v-2.741l3.841-1.097v3.838h6.245v3.218h-6.245zM121.551 13.495v13.246h-3.832v-2.314a12.25 12.25 0 01-7.678 2.542c-3.516 0-6.806-1.246-6.85-6.14l.044-7.334h3.851v5.873c0 2.803.93 4.27 4.096 4.27 2.574 0 5.349-1.327 6.537-2.72v-7.423h3.832zM151.898 19.315l-.043 7.42h-3.83v-5.863c0-2.803-.468-4.27-3.2-4.27a8.109 8.109 0 00-5.15 2.021c.021.232.029.465.025.698l-.047 7.42h-3.838v-5.869c0-2.803-.472-4.27-3.203-4.27a7.92 7.92 0 00-5.461 2.336v7.803h-3.817V13.495h3.829v2.162a10.513 10.513 0 016.85-2.386c1.991 0 3.873.586 4.881 2.43a11.77 11.77 0 017.318-2.43c2.955 0 5.643 1.246 5.686 6.05v-.006zM19.364 20.813A9.58 9.58 0 0021 7.773a9.495 9.495 0 00-5.977-3.741 9.465 9.465 0 00-6.899 1.421 9.545 9.545 0 00-4.03 5.803 9.584 9.584 0 001.054 6.995 9.508 9.508 0 005.558 4.345 9.461 9.461 0 008.659-1.783zm2.735 2.75l3.253 3.275H13.358a13.317 13.317 0 01-8.378-2.97 13.427 13.427 0 01-4.669-7.595 13.474 13.474 0 011.107-8.856 13.383 13.383 0 016.392-6.2A13.298 13.298 0 0116.658.42a13.352 13.352 0 017.39 4.955 13.46 13.46 0 012.66 8.517 13.452 13.452 0 01-3.247 8.308c-.42.489-.874.945-1.362 1.365zM42.077 57.377h-5.092l-9.752-17.701-2.542-4.617 2.542-4.62 2.55 4.623L42.076 57.38v-.003zM23.426 37.352l2.533 4.642-8.474 15.383h-5.083l11.024-20.025zM58.199 50.779c0-2.633-1.88-3.645-5.305-3.645-3.427 0-5.272 1.012-5.272 3.645 0 2.632 1.86 3.62 5.272 3.62 3.41 0 5.305-1.013 5.305-3.62zm3.817-11.393v17.99h-3.817v-2.068c-1.433 1.508-3.736 2.293-6.58 2.293-4.233 0-7.857-1.776-7.857-6.835s3.624-6.853 7.857-6.853c2.843 0 5.147.788 6.58 2.293v-6.82h3.817zM81.948 44.13l-6.692 13.247h-5.463l-6.67-13.246h4.251l5.172 10.526 5.15-10.526h4.252zM85.305 49.221h10.007c-.648-1.869-2.53-2.386-4.962-2.386-2.617 0-4.452.517-5.057 2.386h.012zm10.075 3.427h3.804c-.874 3.374-4.142 4.984-9.02 4.984-5.017-.03-8.924-2.009-8.924-6.853 0-4.845 3.783-6.854 9.135-6.854 5.014 0 9.02 1.732 9.02 7.76H85.172c.425 2.112 2.437 2.804 4.992 2.804 2.639 0 4.251-.495 5.216-1.844v.003zM115.01 44.355v3.218a13.108 13.108 0 00-3.383-.452 10.927 10.927 0 00-6.939 2.318v7.938h-3.827V44.13h3.827v2.25c1.972-1.777 4.297-2.474 6.762-2.474a13.82 13.82 0 013.56.448zM123.426 47.352v3.826c0 2.563.493 3.215 2.819 3.215a19.373 19.373 0 003.426-.225v3.115a25.958 25.958 0 01-4.499.337c-3.411 0-5.597-1.28-5.597-4.206v-6.062h-3.47v-3.221h3.47v-2.745l3.851-1.1v3.845h6.245v3.221h-6.245zM135.065 44.13v13.247h-3.827V44.13h3.827zm0-4.744v3.352h-3.827v-3.352h3.827zM140.347 52.723c0 1.417 1.454 1.956 5.73 1.956 4.142 0 4.812-.27 4.812-1.305s-.62-1.078-5.271-1.37c-5.799-.337-8.642-.79-8.642-3.982 0-3.464 4.031-4.115 8.729-4.115 4.961 0 8.573.65 8.573 4.295h-3.835c0-1.102-1.389-1.373-4.962-1.373-3.624 0-4.651.27-4.651 1.034 0 .835.692.969 5.238 1.305 5.147.383 8.663.517 8.663 4.05 0 3.738-3.358 4.383-8.44 4.383-5.082 0-9.783-.65-9.783-4.878h3.839zM160.022 44.13v13.247h-3.827V44.13h3.827zm0-4.744v3.352h-3.827v-3.352h3.827zM180.304 50.047l-.047 7.33h-3.851v-5.87c0-2.803-.93-4.273-4.096-4.273-2.574 0-5.349 1.327-6.536 2.722v7.42h-3.827V44.132h3.827v2.318a12.23 12.23 0 017.68-2.543c3.513 0 6.803 1.247 6.85 6.14zM196.149 50.564c0-2.43-1.678-3.443-5.271-3.443-3.594 0-5.306 1.013-5.306 3.443s1.699 3.427 5.306 3.427c3.606 0 5.271-1.013 5.271-3.427zM200 44.13v11.134c0 5.395-3.603 7.735-8.595 7.735a33.564 33.564 0 01-8.261-1.056v-3.115c1.551.292 4.5.934 7.411.934 3.963 0 5.439-1.53 5.582-4.925-1.343 1.483-3.557 2.361-6.67 2.361-4.521 0-7.752-1.981-7.752-6.657s3.225-6.657 7.752-6.657c3.135 0 5.349.875 6.67 2.361v-2.137l3.863.022z"/></g><defs><clipPath id="lclip0"><path fill="#fff" d="M0 0h200v63H0z"/></clipPath></defs></svg><svg fill="none" viewBox="0 0 60 60" id="map" xmlns="http://www.w3.org/2000/svg"><path d="M45 15v.025" stroke="#4414DA" stroke-width="3" stroke-linecap="round" stroke-linejoin="round"/><path d="M45 32.5L36.25 20a10 10 0 1117.5 0L45 32.5z" stroke="#4414DA" stroke-width="2" stroke-linecap="round" stroke-linejoin="round"/><path d="M26.25 11.875L22.5 10l-15 7.5V50l15-7.5 15 7.5 15-7.5v-5M22.5 10v32.5M37.5 37.5V50" stroke="#000" stroke-width="2" stroke-linecap="round" stroke-linejoin="round"/></svg><svg fill="none" viewBox="0 0 20 29" id="map-marker" xmlns="http://www.w3.org/2000/svg"><path d="M19.527 7.218c-.103-.387-.313-.8-.468-1.16C17.201 1.598 13.142 0 9.865 0 5.477 0 .645 2.939 0 8.996v1.238c0 .051.018.515.043.747.362 2.887 2.642 5.955 4.345 8.842C6.221 22.916 8.122 25.96 10.006 29c1.161-1.985 2.319-3.995 3.454-5.929.309-.567.668-1.134.978-1.676.206-.36.6-.72.78-1.056C17.052 16.988 20 13.61 20 10.285V8.92c0-.36-.447-1.623-.473-1.701zM9.945 13.43c-1.29 0-2.701-.644-3.398-2.423-.104-.283-.095-.85-.095-.902v-.8c0-2.267 1.927-3.299 3.604-3.299 2.065 0 3.662 1.65 3.662 3.713 0 2.062-1.708 3.711-3.773 3.711z" fill="#4414DA"/></svg><svg fill="none" viewBox="0 0 60 60" id="message-circle" xmlns="http://www.w3.org/2000/svg"><path d="M7.5 50l3.25-9.75c-2.809-4.154-3.825-9.074-2.86-13.844.966-4.77 3.848-9.067 8.11-12.09 4.261-3.024 9.613-4.569 15.06-4.348 5.447.221 10.619 2.193 14.553 5.548 3.935 3.356 6.364 7.868 6.837 12.696.473 4.83-1.043 9.646-4.265 13.556-3.223 3.91-7.933 6.646-13.256 7.7-5.322 1.055-10.894.355-15.679-1.968L7.5 50" stroke="#000" stroke-width="2" stroke-linecap="round" stroke-linejoin="round"/><path d="M30 30v.025M20 30v.025M40 30v.025" stroke="#4414DA" stroke-width="6" stroke-linecap="round" stroke-linejoin="round"/></svg><svg fill="none" viewBox="0 0 60 60" id="salary" xmlns="http://www.w3.org/2000/svg"><g clip-path="url(#pclip0)"><path d="M29.647 8.622H7.56a.879.879 0 000 1.758h22.086a.879.879 0 100-1.758zM30.526 15.54a.879.879 0 00-.88-.88H7.562a.879.879 0 000 1.759h22.086a.879.879 0 00.879-.88zM7.56 20.699a.879.879 0 000 1.758h11.044a.879.879 0 000-1.758H7.56z" fill="#333"/><path d="M16.612 58.242H3.802a1.91 1.91 0 01-1.907-1.907V3.665a1.91 1.91 0 011.907-1.907c32.721.01 30.733-.02 31.026.022v7.35a3.101 3.101 0 003.098 3.097h7.35c.012.09.021.182.021.275v5.096a.879.879 0 001.758 0v-5.096c0-.869-.301-1.692-.853-2.35l-.004-.004c-.068-.08-8.944-8.999-9.293-9.292l-.002-.002A3.636 3.636 0 0034.553 0H3.802A3.669 3.669 0 00.137 3.665v52.67A3.669 3.669 0 003.802 60h12.81a.879.879 0 000-1.758zM36.585 9.13V3.001l7.469 7.468h-6.128c-.74 0-1.34-.6-1.34-1.34z" fill="#333"/><path fill-rule="evenodd" clip-rule="evenodd" d="M59.307 32.748a3.836 3.836 0 01.557 1.995v21.396A3.867 3.867 0 0156.003 60H22.3a3.867 3.867 0 01-3.86-3.86V34.742c0-2.142 1.75-3.86 3.86-3.86h3.08c.928-6.772 6.75-12.006 13.772-12.006s12.843 5.234 13.77 12.005h3.081c1.4 0 2.627.748 3.304 1.866zM57.91 57.02c.124-.268.196-.566.196-.88v-8.404c0-6.668 0-13.008-.007-13.124l-14.11 9.985 13.92 12.423zm-.655-23.963a2.089 2.089 0 00-1.252-.417H53.05l.002.137c0 1.212-.16 2.42-.471 3.587l4.673-3.307zM20.197 56.139c0 .315.072.613.196.881l13.922-12.423-14.111-9.985c-.007.116-.007 6.424-.006 13.074v8.453zm5.055-23.446v-.053H22.3c-.469 0-.901.156-1.251.417l4.674 3.307a13.96 13.96 0 01-.472-3.587l.001-.084zM21.75 58.166c.176.048.36.076.551.076h33.703c.191 0 .375-.028.551-.076l-15.71-14.02a2.54 2.54 0 00-3.384 0l-15.71 14.02zm29.545-25.389c0-6.695-5.447-12.143-12.142-12.143-6.696 0-12.143 5.448-12.143 12.143 0 1.896.424 3.707 1.26 5.39l7.391 5.23.63-.562a4.285 4.285 0 012.457-1.073h.81c.884.084 1.748.44 2.457 1.073l.629.561 7.391-5.23a12.003 12.003 0 001.26-5.389z" fill="#333"/><path fill-rule="evenodd" clip-rule="evenodd" d="M39.828 41.762a.878.878 0 00.474-.78v-.947c3.721-.758 4.73-6.178.72-7.595a36.845 36.845 0 01-.72-.263v-3.91c.59.152.941.448.973.476a.879.879 0 001.185-1.298c-.048-.044-.848-.765-2.158-.971v-.783a.879.879 0 00-1.758 0v.85a5.131 5.131 0 00-.356.092c-2.571.774-3.242 4.265-1.373 5.73.44.346.985.661 1.729.994v4.987c-.651-.052-1.071-.215-1.783-.68a.879.879 0 10-.963 1.47c1.071.7 1.806.915 2.746.972v.876c0 .34.193.633.474.78h.81zm.608-7.665a10.67 10.67 0 01-.134-.048v4.154c1.76-.675 2.26-3.354.134-4.106zM37.9 30.981c.184.144.403.283.644.417V28.37c-1.1.46-1.34 2.064-.644 2.61z" fill="#4414DA"/></g><defs><clipPath id="pclip0"><path fill="#fff" d="M0 0h60v60H0z"/></clipPath></defs></svg><svg fill="none" viewBox="0 0 60 60" id="shield" xmlns="http://www.w3.org/2000/svg"><g clip-path="url(#qclip0)" stroke="#fff" stroke-width=".6"><path d="M30 4.689c-.648 0-1.17.522-1.17 1.17 0 .604.454 1.106 1.054 1.165a1.168 1.168 0 001.288-1.165c0-.649-.523-1.17-1.171-1.17z" fill="#000"/><path d="M30 17.11c-5.816 0-10.547 4.73-10.547 10.546 0 5.816 4.732 10.547 10.547 10.547 5.816 0 10.547-4.731 10.547-10.547 0-5.815-4.731-10.547-10.547-10.547zm0 18.75c-4.523 0-8.203-3.68-8.203-8.204 0-4.523 3.68-8.203 8.203-8.203s8.203 3.68 8.203 8.203S34.523 35.86 30 35.86z" fill="#4414DA"/><path d="M53.438 7.031a5.866 5.866 0 01-5.86-5.86C47.578.526 47.053 0 46.406 0H13.594c-.647 0-1.172.525-1.172 1.172 0 3.23-2.629 5.86-5.86 5.86-.647 0-1.171.524-1.171 1.171v19.124c0 14.903 9.714 28.258 24.272 32.624a1.176 1.176 0 00.674 0c14.243-4.273 24.272-17.395 24.272-32.624V8.203c0-.647-.524-1.172-1.172-1.172zm-1.172 20.296c0 13.998-8.932 26.12-22.266 30.276A31.687 31.687 0 017.734 27.327V9.292a8.222 8.222 0 006.948-6.948h30.636a8.222 8.222 0 006.948 6.948v18.035z" fill="#000"/><path d="M49.22 10.839a10.556 10.556 0 01-5.45-5.45 1.172 1.172 0 00-1.073-.702h-8.012a1.172 1.172 0 000 2.344h7.271a12.883 12.883 0 005.622 5.622v14.674c0 11.468-6.885 21.364-17.578 25.325-10.694-3.962-17.578-13.857-17.578-25.325V12.653a12.884 12.884 0 005.622-5.622h7.27a1.172 1.172 0 000-2.343h-8.011c-.466 0-.887.275-1.074.701a10.556 10.556 0 01-5.45 5.45 1.172 1.172 0 00-.7 1.073v15.415c0 12.564 7.77 23.514 19.53 27.676a1.172 1.172 0 00.782 0C42.14 50.844 49.92 39.9 49.92 27.327V11.912c0-.465-.275-.887-.7-1.073z" fill="#000"/><path d="M35.516 24.484a1.172 1.172 0 00-1.657 0l-5.03 5.03L27.312 28a1.172 1.172 0 00-1.657 1.657L28 32a1.169 1.169 0 001.657 0l5.86-5.86c.457-.457.457-1.2 0-1.657z" fill="#4414DA"/></g><defs><clipPath id="qclip0"><path fill="#fff" d="M0 0h60v60H0z"/></clipPath></defs></svg><svg fill="none" viewBox="0 0 62 62" id="target" xmlns="http://www.w3.org/2000/svg"><path d="M31.001 61c-8.017 0-15.547-3.117-21.201-8.778C-1.89 40.52-1.89 21.48 9.8 9.778 15.454 4.118 22.983 1 31 1c8.018 0 15.547 3.117 21.202 8.778 11.689 11.702 11.689 30.742 0 42.444l-.83-.828.83.828C46.548 57.882 39.018 61 31 61zm0-57.656c-7.39 0-14.331 2.873-19.543 8.09-10.777 10.789-10.777 28.343 0 39.132 5.212 5.217 12.152 8.09 19.543 8.09 7.39 0 14.331-2.873 19.542-8.09 10.777-10.789 10.777-28.343 0-39.132-5.21-5.217-12.151-8.09-19.542-8.09v0z" fill="#000" stroke="#fff" stroke-width=".4"/><path d="M31 54.015c-6.15 0-11.927-2.391-16.264-6.734a22.84 22.84 0 01-6.45-12.71 1.172 1.172 0 012.316-.36 20.511 20.511 0 005.792 11.413c3.895 3.9 9.083 6.047 14.607 6.047 5.524 0 10.711-2.147 14.607-6.047 8.055-8.064 8.055-21.185 0-29.249-3.896-3.9-9.083-6.047-14.607-6.047-5.525 0-10.712 2.148-14.607 6.047a20.561 20.561 0 00-4.087 5.82 1.172 1.172 0 01-2.122-.995 22.9 22.9 0 014.55-6.481c4.338-4.343 10.115-6.734 16.266-6.734 6.15 0 11.927 2.391 16.265 6.734 8.967 8.977 8.967 23.585 0 32.562-4.338 4.343-10.114 6.734-16.265 6.734v0z" fill="#000" stroke="#fff" stroke-width=".4"/><path d="M9.449 28.753a1.18 1.18 0 01-1.11-.795c-.158-.469.002-1.004.396-1.306.38-.29.907-.318 1.316-.074.419.249.644.755.547 1.233-.11.54-.597.942-1.15.942v0zM45.785 30.872c-.49 0-.937-.317-1.102-.777-.167-.465-.017-1 .37-1.31a1.183 1.183 0 011.328-.093c.423.25.65.755.553 1.237a1.184 1.184 0 01-1.15.943v0z" fill="#000" stroke="#fff" stroke-width=".4"/><path fill-rule="evenodd" clip-rule="evenodd" d="M44.007 35.23a1.172 1.172 0 012.231.717 16.044 16.044 0 01-8.085 9.404h-.003A16.034 16.034 0 0131 47.027c-2.455 0-4.91-.558-7.15-1.674l-.002-.001a15.927 15.927 0 01-4.176-3.012c-6.247-6.252-6.247-16.426 0-22.678A15.902 15.902 0 0131 14.968c4.285 0 8.308 1.667 11.33 4.692a15.967 15.967 0 012.99 4.142 1.172 1.172 0 11-2.096 1.05 13.632 13.632 0 00-2.553-3.536 13.575 13.575 0 00-9.67-4.004 13.575 13.575 0 00-9.67 4.004c-5.336 5.34-5.336 14.027-.001 19.366a13.72 13.72 0 001.869 1.565v-3.313a2.989 2.989 0 012.984-2.987h9.635a2.989 2.989 0 012.984 2.987v3.313c.665-.462 1.29-.985 1.869-1.565a13.505 13.505 0 003.336-5.454zm-18.464 3.705v4.62a13.766 13.766 0 0010.916 0v-4.62a.642.642 0 00-.641-.643h-9.635a.642.642 0 00-.64.643zM31 35.18c-3.644 0-6.608-2.967-6.608-6.614s2.964-6.614 6.608-6.614c3.643 0 6.608 2.967 6.608 6.614S34.644 35.18 31 35.18zm0-2.344a4.272 4.272 0 004.264-4.27A4.272 4.272 0 0031 24.296a4.272 4.272 0 00-4.264 4.27A4.272 4.272 0 0031 32.836z" fill="#4414DA"/><path d="M45.481 34.473l.062-.19-.062.19zm-1.474.756l.19.062-.19-.062zm2.231.718l-.19-.061.19.061zm-3.909 6.392l-.141-.141.141.141zm-4.176 3.012l.082.182.007-.003-.09-.18zm-.003 0l-.082-.182-.007.004.09.179zm-14.3.001l.09-.18-.007-.002-.082.182zm-.002-.001l-.089.18.007.002.082-.182zm-4.176-3.012l.141-.141-.141.141zm0-22.678l.141.14-.141-.14zm22.657 0l-.141.141.141-.141zm2.99 4.142l.18-.09-.18.09zm-.522 1.573l.09.179-.09-.18zm-1.573-.523l-.178.09.178-.09zm-2.553-3.536l-.141.142.141-.142zm-19.34 0l.14.141-.14-.141zm-.001 19.366l.141-.142-.141.142zm1.869 1.565l-.114.164.314.22v-.384h-.2zm15.603 0h-.2v.383l.314-.218-.114-.165zm1.869-1.565l.142.142-.142-.142zm-15.128 2.873h-.2v.131l.12.052.08-.183zm10.916 0l.08.183.12-.052v-.131h-.2zm9.084-9.274a1.372 1.372 0 00-1.726.886l.38.123a.972.972 0 011.223-.628l.123-.38zm.885 1.726a1.372 1.372 0 00-.885-1.726l-.123.381a.972.972 0 01.628 1.223l.38.122zm-3.957 6.473a16.244 16.244 0 003.957-6.473l-.38-.122a15.844 15.844 0 01-3.86 6.312l.283.283zm-4.23 3.049a16.135 16.135 0 004.23-3.05l-.283-.282a15.736 15.736 0 01-4.125 2.974l.179.358zm-.009.004h.002l-.163-.366-.003.002.164.364zM31 47.226c2.486 0 4.972-.565 7.24-1.695l-.18-.358A15.834 15.834 0 0131 46.826v.4zm-7.239-1.695a16.234 16.234 0 007.24 1.695v-.4c-2.426 0-4.85-.551-7.061-1.653l-.179.358zm.005.002l.003.001.164-.364-.003-.002-.164.365zM19.53 42.48a16.13 16.13 0 004.23 3.05l.177-.358a15.732 15.732 0 01-4.124-2.974l-.283.282zm0-22.96c-6.325 6.33-6.325 16.63 0 22.96l.283-.282c-6.169-6.174-6.169-16.222 0-22.396l-.283-.283zM31 14.77a16.102 16.102 0 00-11.47 4.75l.283.282A15.702 15.702 0 0131 15.169v-.4zm11.47 4.75A16.102 16.102 0 0031 14.77v.4c4.232 0 8.204 1.644 11.188 4.632l.283-.283zm3.029 4.193a16.167 16.167 0 00-3.029-4.194l-.282.283a15.767 15.767 0 012.953 4.09l.358-.179zm-.612 1.841c.677-.339.951-1.163.612-1.84l-.358.179a.972.972 0 01-.433 1.304l.179.358zm-1.841-.611c.34.677 1.163.95 1.84.612l-.178-.358a.972.972 0 01-1.305-.434l-.357.18zm-2.516-3.484a13.43 13.43 0 012.516 3.484l.357-.18a13.83 13.83 0 00-2.59-3.587l-.283.283zM31 17.513c3.605 0 6.989 1.401 9.53 3.946l.283-.283A13.775 13.775 0 0031 17.113v.4zm-9.528 3.945A13.374 13.374 0 0131 17.513v-.4c-3.71 0-7.195 1.443-9.811 4.063l.283.282zm0 19.084c-5.257-5.262-5.257-13.822 0-19.084l-.283-.282c-5.413 5.417-5.413 14.231 0 19.648l.282-.282zm1.841 1.542a13.507 13.507 0 01-1.842-1.543l-.283.283a13.905 13.905 0 001.897 1.588l.228-.328zM23 38.934v3.314h.4v-3.313h-.4zm3.184-3.186A3.189 3.189 0 0023 38.935h.4a2.789 2.789 0 012.784-2.787v-.4zm9.635 0h-9.635v.4h9.635v-.4zm3.184 3.187a3.189 3.189 0 00-3.184-3.187v.4a2.789 2.789 0 012.784 2.787h.4zm0 3.313v-3.313h-.4v3.313h.4zm1.527-1.706a13.504 13.504 0 01-1.841 1.542l.228.329c.675-.47 1.309-1 1.897-1.588l-.284-.283zm3.288-5.374a13.305 13.305 0 01-3.288 5.374l.283.282a13.705 13.705 0 003.385-5.533l-.38-.123zm-18.074 8.388v-4.621h-.4v4.62h.4zm10.636-.184a13.567 13.567 0 01-10.757 0l-.16.367a13.966 13.966 0 0011.076 0l-.16-.367zm-.12-4.437v4.62h.4v-4.62h-.4zm-.441-.443c.242 0 .44.198.44.443h.4a.842.842 0 00-.84-.843v.4zm-9.635 0h9.635v-.4h-9.635v.4zm-.44.443c0-.245.198-.443.44-.443v-.4a.842.842 0 00-.84.843h.4zm-1.55-10.369c0 3.757 3.053 6.814 6.808 6.814v-.4c-3.533 0-6.408-2.877-6.408-6.414h-.4zM31 21.752c-3.755 0-6.808 3.057-6.808 6.814h.4c0-3.537 2.875-6.414 6.408-6.414v-.4zm6.808 6.814c0-3.757-3.054-6.814-6.808-6.814v.4c3.533 0 6.408 2.877 6.408 6.414h.4zM31 35.38c3.754 0 6.808-3.057 6.808-6.814h-.4c0 3.537-2.875 6.414-6.408 6.414v.4zm4.064-6.814A4.072 4.072 0 0131 32.636v.4a4.472 4.472 0 004.464-4.47h-.4zM31 24.496a4.072 4.072 0 014.064 4.07h.4A4.472 4.472 0 0031 24.096v.4zm-4.065 4.07A4.072 4.072 0 0131 24.496v-.4a4.472 4.472 0 00-4.464 4.47h.4zM31 32.636a4.072 4.072 0 01-4.064-4.07h-.4A4.472 4.472 0 0031 33.036v-.4z" fill="#fff"/></svg><svg fill="none" viewBox="0 0 60 60" id="technical-support" xmlns="http://www.w3.org/2000/svg"><g clip-path="url(#sclip0)" stroke="#fff" stroke-width=".4"><path d="M10.553 46.4c-.84 0-1.648.21-2.364.604A27.707 27.707 0 012.344 30C2.344 14.75 14.75 2.344 30 2.344c1.854 0 3.707.184 5.508.548a1.172 1.172 0 00.464-2.297A30.223 30.223 0 0030 0C21.987 0 14.453 3.12 8.787 8.787 3.12 14.453 0 21.987 0 30c0 6.74 2.289 13.319 6.456 18.592a4.887 4.887 0 00-.825 2.73c0 1.315.512 2.55 1.442 3.48a4.888 4.888 0 003.48 1.442 4.89 4.89 0 003.48-1.442 4.889 4.889 0 001.442-3.48c0-1.315-.512-2.55-1.442-3.48a4.89 4.89 0 00-3.48-1.442v0zm1.823 6.745a2.56 2.56 0 01-1.823.755 2.561 2.561 0 01-1.823-.755 2.561 2.561 0 01-.755-1.823c0-.689.268-1.336.755-1.823a2.56 2.56 0 011.823-.755c.688 0 1.336.268 1.823.755.487.487.755 1.134.755 1.823a2.56 2.56 0 01-.755 1.823v0zM53.543 11.406a4.93 4.93 0 00-.615-6.209 4.891 4.891 0 00-3.48-1.441c-1.316 0-2.552.512-3.481 1.441a4.89 4.89 0 00-1.442 3.48 4.89 4.89 0 001.442 3.481 4.89 4.89 0 003.48 1.442c.84 0 1.648-.21 2.364-.604A27.708 27.708 0 0157.656 30c0 15.25-12.406 27.656-27.656 27.656-1.836 0-3.671-.18-5.455-.538a1.173 1.173 0 00-.46 2.299C26.02 59.803 28.01 60 30 60c8.013 0 15.547-3.12 21.213-8.787C56.88 45.547 60 38.013 60 30c0-6.741-2.29-13.32-6.457-18.594v0zm-5.919-.905a2.561 2.561 0 01-.755-1.823c0-.689.268-1.336.755-1.823a2.56 2.56 0 011.823-.755c.689 0 1.336.268 1.823.755a2.582 2.582 0 010 3.646 2.564 2.564 0 01-1.823.755 2.561 2.561 0 01-1.823-.755z" fill="#000"/><path d="M25.164 50.156c0 .648.525 1.172 1.172 1.172h7.327c.648 0 1.172-.525 1.172-1.172v-2.272a18.352 18.352 0 004.398-1.822l1.604 1.604a1.172 1.172 0 001.658 0l5.18-5.184c.456-.457.456-1.2 0-1.657l-1.603-1.602a18.354 18.354 0 001.823-4.398h2.263c.647 0 1.172-.525 1.172-1.172v-7.327c0-.648-.525-1.172-1.172-1.172h-2.264a18.354 18.354 0 00-1.822-4.398l1.593-1.594a1.172 1.172 0 000-1.658l-5.183-5.179a1.172 1.172 0 00-1.657 0l-1.592 1.592a18.348 18.348 0 00-4.398-1.822V9.844c0-.648-.524-1.172-1.172-1.172h-7.327c-.647 0-1.172.524-1.172 1.172v2.251a18.338 18.338 0 00-4.398 1.822l-1.591-1.591a1.172 1.172 0 00-1.657 0l-5.183 5.179a1.17 1.17 0 000 1.657l1.593 1.594a18.347 18.347 0 00-1.823 4.398h-2.26c-.646 0-1.171.524-1.171 1.171l-.004 7.328a1.17 1.17 0 001.172 1.172h2.263a18.35 18.35 0 001.823 4.398l-1.602 1.602a1.172 1.172 0 000 1.657l5.179 5.183c.22.22.518.344.828.344h0c.312 0 .61-.124.83-.343l1.603-1.604a18.37 18.37 0 004.398 1.822v2.272zm-3.939-6.559a1.172 1.172 0 00-1.464.156l-1.427 1.426-3.523-3.525 1.426-1.426c.39-.39.455-1 .155-1.464a16.04 16.04 0 01-2.22-5.357 1.172 1.172 0 00-1.145-.926h-2.013l.003-4.984h2.01c.552 0 1.03-.385 1.146-.925a16.041 16.041 0 012.22-5.357c.3-.464.234-1.074-.156-1.464l-1.417-1.417 3.526-3.523 1.415 1.416c.39.39 1 .455 1.465.155a16.033 16.033 0 015.356-2.22c.54-.116.926-.593.926-1.145v-2.001h4.984v2c0 .553.385 1.03.925 1.146 1.91.41 3.713 1.157 5.357 2.22a1.17 1.17 0 001.464-.156l1.416-1.415 3.525 3.523-1.416 1.416a1.172 1.172 0 00-.156 1.465 16.05 16.05 0 012.22 5.357c.115.54.593.925 1.145.925h2.014v4.984h-2.014c-.552 0-1.03.386-1.145.926a16.038 16.038 0 01-2.22 5.356c-.3.465-.235 1.075.156 1.465l1.425 1.426-3.523 3.525-1.426-1.426a1.172 1.172 0 00-1.465-.156 16.055 16.055 0 01-5.357 2.22c-.54.116-.925.593-.925 1.145v2.022h-4.984v-2.022c0-.552-.386-1.03-.926-1.145a16.044 16.044 0 01-5.357-2.22v0z" fill="#000"/><path d="M39.683 30c0-5.34-4.344-9.683-9.683-9.683-5.34 0-9.684 4.344-9.684 9.683 0 5.34 4.344 9.683 9.684 9.683 5.339 0 9.683-4.344 9.683-9.683zM22.66 30c0-4.047 3.292-7.34 7.34-7.34 4.047 0 7.339 3.293 7.339 7.34s-3.292 7.34-7.34 7.34c-4.047 0-7.339-3.293-7.339-7.34z" fill="#4414DA"/><path d="M40.791 4.432c.309 0 .61-.125.829-.343.218-.22.343-.522.343-.83 0-.307-.125-.61-.343-.829a1.18 1.18 0 00-.829-.343c-.31 0-.61.125-.828.343-.218.22-.344.52-.344.829 0 .31.126.61.344.83.218.218.519.343.828.343zM19.262 55.589c-.308 0-.61.125-.829.343-.218.218-.343.52-.343.829 0 .31.125.61.343.828.218.218.52.344.829.344.308 0 .61-.126.828-.344.218-.218.344-.52.344-.828 0-.308-.126-.61-.344-.829a1.181 1.181 0 00-.828-.343z" fill="#000"/></g><defs><clipPath id="sclip0"><path fill="#fff" d="M0 0h60v60H0z"/></clipPath></defs></svg><svg fill="none" viewBox="0 0 22 22" id="telephone" xmlns="http://www.w3.org/2000/svg"><path d="M18.502 13.763c-.795-.785-1.788-.785-2.578 0-.602.597-1.205 1.195-1.797 1.802-.163.168-.3.203-.497.092-.39-.213-.805-.385-1.18-.618-1.747-1.1-3.21-2.512-4.507-4.102-.643-.79-1.215-1.636-1.615-2.588-.081-.192-.066-.32.09-.476.603-.582 1.19-1.18 1.783-1.778.826-.83.826-1.802-.005-2.638-.47-.476-.942-.942-1.413-1.418-.486-.486-.967-.977-1.458-1.459-.795-.774-1.788-.774-2.578.006-.607.597-1.19 1.21-1.808 1.797-.572.542-.86 1.206-.921 1.98C-.08 5.624.23 6.814.666 7.974c.891 2.4 2.248 4.533 3.894 6.487 2.223 2.644 4.877 4.735 7.981 6.245 1.398.678 2.846 1.2 4.421 1.286 1.084.06 2.026-.213 2.78-1.059.517-.577 1.1-1.104 1.646-1.655.81-.82.816-1.813.01-2.624-.962-.967-1.929-1.93-2.896-2.891z" fill="#4414DA"/></svg><svg fill="none" viewBox="0 0 60 60" id="users" xmlns="http://www.w3.org/2000/svg"><path d="M22.5 27.5c5.523 0 10-4.477 10-10s-4.477-10-10-10-10 4.477-10 10 4.477 10 10 10zM7.5 52.5v-5a10 10 0 0110-10h10a10 10 0 0110 10v5" stroke="#000" stroke-width="2" stroke-linecap="round" stroke-linejoin="round"/><path d="M40 7.825A10 10 0 0140 27.2M52.5 52.5v-5a10 10 0 00-7.5-9.625" stroke="#4414DA" stroke-width="2" stroke-linecap="round" stroke-linejoin="round"/></svg><svg fill="none" viewBox="0 0 23 23" id="whatsapp" xmlns="http://www.w3.org/2000/svg"><path d="M11.503 0h-.006C5.157 0 0 5.158 0 11.5c0 2.516.81 4.847 2.19 6.74L.755 22.513l4.42-1.413a11.4 11.4 0 006.327 1.9C17.843 23 23 17.84 23 11.5S17.844 0 11.503 0z" fill="#4414DA"/><path d="M18.194 16.24c-.277.783-1.378 1.433-2.257 1.622-.6.128-1.385.23-4.027-.865-3.38-1.4-5.556-4.834-5.726-5.057-.162-.223-1.366-1.819-1.366-3.469s.838-2.454 1.176-2.799c.278-.283.736-.412 1.176-.412.142 0 .27.007.385.013.338.014.508.034.73.568.278.668.954 2.318 1.034 2.488.082.17.164.4.049.622-.108.23-.203.332-.372.528-.17.195-.33.345-.5.555-.156.182-.331.378-.136.716.196.33.871 1.433 1.866 2.318 1.284 1.143 2.325 1.508 2.697 1.664.277.115.608.087.81-.128.258-.278.576-.738.9-1.19.23-.326.52-.366.824-.25.31.107 1.954.92 2.292 1.087.338.17.56.25.642.393.08.142.08.81-.197 1.595z" fill="#FAFAFA"/></svg></svg>