<?xml version="1.0" encoding="utf-8"?><svg viewBox="0 0 200 66" xmlns="http://www.w3.org/2000/svg" xmlns:xlink="http://www.w3.org/1999/xlink"><style>:root>svg{display:none}:root>svg:target{display:block}</style><svg fill="none" viewBox="0 0 8 15" id="icon-fb" xmlns="http://www.w3.org/2000/svg"><path d="M6.54 2.49H8V.107A20.101 20.101 0 005.872 0c-4.62 0-3.364 4.906-3.548 5.625H0v2.666h2.324V15h2.849V8.292h2.23l.354-2.666H5.172C5.298 3.86 4.665 2.49 6.54 2.49z" fill="#000"/></svg><svg fill="none" viewBox="0 0 15 15" id="icon-ig" xmlns="http://www.w3.org/2000/svg"><path d="M7.5.007C4.428.007 1.511-.266.397 2.592c-.46 1.18-.394 2.712-.394 4.907 0 1.926-.061 3.736.394 4.907 1.111 2.859 4.052 2.585 7.101 2.585 2.942 0 5.975.306 7.103-2.585.461-1.193.393-2.702.393-4.907 0-2.927.162-4.816-1.258-6.235C12.296-.173 10.351.007 7.495.007H7.5zm-.672 1.35c6.408-.01 7.224-.722 6.774 9.167-.16 3.497-2.825 3.113-6.101 3.113-5.973 0-6.145-.17-6.145-6.141 0-6.04.474-6.135 5.472-6.14v.001zm4.674 1.244a.9.9 0 100 1.798.9.9 0 000-1.798zM7.5 3.65a3.848 3.848 0 100 7.694 3.847 3.847 0 100-7.693zm0 1.35c3.304 0 3.308 4.995 0 4.995-3.303 0-3.308-4.994 0-4.994z" fill="#000"/></svg><svg fill="none" viewBox="0 0 66 66" id="icon-mouse" xmlns="http://www.w3.org/2000/svg"><path d="M33 62.333A18.333 18.333 0 0114.665 44V22a18.334 18.334 0 0136.667 0v22a18.333 18.333 0 01-18.334 18.333zm0-55A14.666 14.666 0 0018.332 22v22a14.666 14.666 0 1029.333 0V22A14.667 14.667 0 0032.999 7.333z" fill="#fff"/><path d="M33 27.5a1.833 1.833 0 01-1.834-1.833v-7.334a1.833 1.833 0 013.667 0v7.334a1.833 1.833 0 01-1.834 1.833z" fill="#fff"/></svg><svg fill="none" viewBox="0 0 15 12" id="icon-tw" xmlns="http://www.w3.org/2000/svg"><path d="M13.47 3.384c0-.134-.005-.263-.011-.391A6.086 6.086 0 0015 1.42c-.558.24-1.152.4-1.772.477A3.02 3.02 0 0014.581.225a6.212 6.212 0 01-1.95.733A3.103 3.103 0 0010.385 0C8.682 0 7.312 1.36 7.312 3.028c0 .24.02.471.071.69A8.752 8.752 0 011.044.552a3.018 3.018 0 00-.42 1.53 3.02 3.02 0 001.365 2.517A3.076 3.076 0 01.6 4.225v.033c0 1.472 1.066 2.694 2.464 2.976a3.3 3.3 0 01-1.388.048 3.1 3.1 0 002.873 2.11 6.243 6.243 0 01-3.813 1.29c-.252 0-.494-.01-.736-.04A8.759 8.759 0 004.718 12c5.658 0 8.752-4.615 8.752-8.616z" fill="#000"/></svg><svg fill="none" viewBox="0 0 15 9" id="icon-vk" xmlns="http://www.w3.org/2000/svg"><path d="M12.447 5.16c-.243-.314-.173-.454 0-.736.003-.003 2.005-2.848 2.211-3.813h.001c.103-.353 0-.611-.495-.611h-1.64c-.418 0-.61.222-.713.47 0 0-.835 2.056-2.017 3.388-.38.385-.557.509-.765.509-.103 0-.262-.123-.262-.475V.61c0-.422-.117-.61-.463-.61H5.726c-.262 0-.418.197-.418.38 0 .4.59.492.652 1.617v2.44c0 .535-.094.634-.304.634-.557 0-1.91-2.064-2.712-4.427-.162-.458-.32-.643-.74-.643H.561C.094 0 0 .222 0 .47c0 .438.557 2.618 2.592 5.498C3.95 7.935 5.86 9 7.596 9c1.045 0 1.172-.237 1.172-.643 0-1.879-.094-2.056.429-2.056.242 0 .66.123 1.635 1.071C11.946 8.497 12.129 9 12.753 9h1.64c.468 0 .704-.237.568-.703-.312-.982-2.42-3.001-2.514-3.136z" fill="#000"/></svg><svg fill="none" viewBox="0 0 15 11" id="icon-yt" xmlns="http://www.w3.org/2000/svg"><path d="M.336 9.303c.306 1.125 1.242 1.33 1.304 1.37 1.541.435 10.178.437 11.742 0 1.07-.32 1.268-1.305 1.304-1.37.408-2.249.435-5.18-.018-7.732l.018.126C14.38.572 13.444.367 13.382.327c-1.52-.428-10.18-.444-11.742 0C.57.649.373 1.633.336 1.697c-.437 2.364-.459 5.075 0 7.606zm5.675-1.44v-4.72l3.913 2.364-3.913 2.357z" fill="#000"/></svg><svg fill="none" viewBox="0 0 200 63" id="logo" xmlns="http://www.w3.org/2000/svg"><g clip-path="url(#gclip0)" fill="#fff"><path d="M47.879 13.495v13.246h-3.826v-2.314a12.248 12.248 0 01-7.678 2.542c-3.516 0-6.822-1.246-6.85-6.14l.044-7.334h3.851v5.873c0 2.803.93 4.27 4.096 4.27 2.574 0 5.349-1.327 6.537-2.72v-7.423h3.826zM63.594 21.592a18.167 18.167 0 00-5.609-.81c-2.865 0-4.589.495-4.589 1.844 0 1.396 1.277 1.508 3.268 1.508a19.587 19.587 0 006.918-1.508v-1.034h.012zm3.848-1.53v6.68h-3.848V25.1a17.606 17.606 0 01-8.015 1.869c-3.693 0-5.997-1.193-5.997-4.184 0-3.427 3.758-4.52 7.944-4.52 2.06-.018 4.109.297 6.068.934 0-2.517-3.224-2.72-5.014-2.72a21.92 21.92 0 00-6.536.966l-1.367-2.803a25.697 25.697 0 018.08-1.374c5.507 0 8.642 1.776 8.682 6.791l.004.003zM87.5 19.411l-.059 7.33h-3.839v-5.869c0-2.803-.93-4.27-4.096-4.27-2.573 0-5.349 1.326-6.536 2.719v7.42h-3.823V13.495h3.826v2.318a12.23 12.23 0 017.677-2.542c3.517 0 6.822 1.246 6.853 6.14H87.5zM95.503 16.713v3.823c0 2.564.49 3.215 2.819 3.215a19.394 19.394 0 003.426-.225v3.116a25.616 25.616 0 01-4.5.34c-3.41 0-5.596-1.284-5.596-4.206v-6.063h-3.46v-3.218h3.47v-2.741l3.841-1.097v3.838h6.245v3.218h-6.245zM121.551 13.495v13.246h-3.832v-2.314a12.25 12.25 0 01-7.678 2.542c-3.516 0-6.806-1.246-6.85-6.14l.044-7.334h3.851v5.873c0 2.803.93 4.27 4.096 4.27 2.574 0 5.349-1.327 6.537-2.72v-7.423h3.832zM151.898 19.315l-.043 7.42h-3.83v-5.863c0-2.803-.468-4.27-3.2-4.27a8.109 8.109 0 00-5.15 2.021c.021.232.029.465.025.698l-.047 7.42h-3.838v-5.869c0-2.803-.472-4.27-3.203-4.27a7.92 7.92 0 00-5.461 2.336v7.803h-3.817V13.495h3.829v2.162a10.513 10.513 0 016.85-2.386c1.991 0 3.873.586 4.881 2.43a11.77 11.77 0 017.318-2.43c2.955 0 5.643 1.246 5.686 6.05v-.006zM19.364 20.813A9.58 9.58 0 0021 7.773a9.495 9.495 0 00-5.977-3.741 9.465 9.465 0 00-6.899 1.421 9.545 9.545 0 00-4.03 5.803 9.584 9.584 0 001.054 6.995 9.508 9.508 0 005.558 4.345 9.461 9.461 0 008.659-1.783zm2.735 2.75l3.253 3.275H13.358a13.317 13.317 0 01-8.378-2.97 13.427 13.427 0 01-4.669-7.595 13.474 13.474 0 011.107-8.856 13.383 13.383 0 016.392-6.2A13.298 13.298 0 0116.658.42a13.352 13.352 0 017.39 4.955 13.46 13.46 0 012.66 8.517 13.452 13.452 0 01-3.247 8.308c-.42.489-.874.945-1.362 1.365zM42.077 57.377h-5.092l-9.752-17.701-2.542-4.617 2.542-4.62 2.55 4.623L42.076 57.38v-.003zM23.426 37.352l2.533 4.642-8.474 15.383h-5.083l11.024-20.025zM58.199 50.779c0-2.633-1.88-3.645-5.305-3.645-3.427 0-5.272 1.012-5.272 3.645 0 2.632 1.86 3.62 5.272 3.62 3.41 0 5.305-1.013 5.305-3.62zm3.817-11.393v17.99h-3.817v-2.068c-1.433 1.508-3.736 2.293-6.58 2.293-4.233 0-7.857-1.776-7.857-6.835s3.624-6.853 7.857-6.853c2.843 0 5.147.788 6.58 2.293v-6.82h3.817zM81.948 44.13l-6.692 13.247h-5.463l-6.67-13.246h4.251l5.172 10.526 5.15-10.526h4.252zM85.305 49.221h10.007c-.648-1.869-2.53-2.386-4.962-2.386-2.617 0-4.452.517-5.057 2.386h.012zm10.075 3.427h3.804c-.874 3.374-4.142 4.984-9.02 4.984-5.017-.03-8.924-2.009-8.924-6.853 0-4.845 3.783-6.854 9.135-6.854 5.014 0 9.02 1.732 9.02 7.76H85.172c.425 2.112 2.437 2.804 4.992 2.804 2.639 0 4.251-.495 5.216-1.844v.003zM115.01 44.355v3.218a13.108 13.108 0 00-3.383-.452 10.927 10.927 0 00-6.939 2.318v7.938h-3.827V44.13h3.827v2.25c1.972-1.777 4.297-2.474 6.762-2.474a13.82 13.82 0 013.56.448zM123.426 47.352v3.826c0 2.563.493 3.215 2.819 3.215a19.373 19.373 0 003.426-.225v3.115a25.958 25.958 0 01-4.499.337c-3.411 0-5.597-1.28-5.597-4.206v-6.062h-3.47v-3.221h3.47v-2.745l3.851-1.1v3.845h6.245v3.221h-6.245zM135.065 44.13v13.247h-3.827V44.13h3.827zm0-4.744v3.352h-3.827v-3.352h3.827zM140.347 52.723c0 1.417 1.454 1.956 5.73 1.956 4.142 0 4.812-.27 4.812-1.305s-.62-1.078-5.271-1.37c-5.799-.337-8.642-.79-8.642-3.982 0-3.464 4.031-4.115 8.729-4.115 4.961 0 8.573.65 8.573 4.295h-3.835c0-1.102-1.389-1.373-4.962-1.373-3.624 0-4.651.27-4.651 1.034 0 .835.692.969 5.238 1.305 5.147.383 8.663.517 8.663 4.05 0 3.738-3.358 4.383-8.44 4.383-5.082 0-9.783-.65-9.783-4.878h3.839zM160.022 44.13v13.247h-3.827V44.13h3.827zm0-4.744v3.352h-3.827v-3.352h3.827zM180.304 50.047l-.047 7.33h-3.851v-5.87c0-2.803-.93-4.273-4.096-4.273-2.574 0-5.349 1.327-6.536 2.722v7.42h-3.827V44.132h3.827v2.318a12.23 12.23 0 017.68-2.543c3.513 0 6.803 1.247 6.85 6.14zM196.149 50.564c0-2.43-1.678-3.443-5.271-3.443-3.594 0-5.306 1.013-5.306 3.443s1.699 3.427 5.306 3.427c3.606 0 5.271-1.013 5.271-3.427zM200 44.13v11.134c0 5.395-3.603 7.735-8.595 7.735a33.564 33.564 0 01-8.261-1.056v-3.115c1.551.292 4.5.934 7.411.934 3.963 0 5.439-1.53 5.582-4.925-1.343 1.483-3.557 2.361-6.67 2.361-4.521 0-7.752-1.981-7.752-6.657s3.225-6.657 7.752-6.657c3.135 0 5.349.875 6.67 2.361v-2.137l3.863.022z"/></g><defs><clipPath id="gclip0"><path fill="#fff" d="M0 0h200v63H0z"/></clipPath></defs></svg></svg>