<svg width="15" height="15" viewBox="0 0 15 15" fill="none" xmlns="http://www.w3.org/2000/svg">
<path d="M7.50019 0.00722973C4.4282 0.00722973 1.51104 -0.265826 0.396796 2.59154C-0.0634518 3.77169 0.0033858 5.30435 0.0033858 7.49894C0.0033858 9.42471 -0.0583755 11.2347 0.396796 12.4055C1.5085 15.2646 4.44935 14.9907 7.49849 14.9907C10.4402 14.9907 13.4733 15.2967 14.601 12.4055C15.0621 11.2135 14.9944 9.70368 14.9944 7.49894C14.9944 4.57226 15.156 2.68284 13.7355 1.2643C12.2973 -0.172835 10.3522 0.00722973 7.4968 0.00722973H7.50019ZM6.82843 1.35729C13.2364 1.34715 14.052 0.635345 13.6019 10.5237C13.442 14.021 10.7769 13.6372 7.50103 13.6372C1.52796 13.6372 1.35621 13.4664 1.35621 7.49556C1.35621 1.45536 1.83 1.36068 6.82843 1.3556V1.35729ZM11.502 2.60084C11.0053 2.60084 10.6026 3.00324 10.6026 3.49947C10.6026 3.99571 11.0053 4.39811 11.502 4.39811C11.9986 4.39811 12.4013 3.99571 12.4013 3.49947C12.4013 3.00324 11.9986 2.60084 11.502 2.60084ZM7.50019 3.65164C5.37408 3.65164 3.65068 5.37452 3.65068 7.49894C3.65068 9.62337 5.37408 11.3454 7.50019 11.3454C9.6263 11.3454 11.3488 9.62337 11.3488 7.49894C11.3488 5.37452 9.6263 3.65164 7.50019 3.65164ZM7.50019 5.00171C10.804 5.00171 10.8082 9.99618 7.50019 9.99618C4.19723 9.99618 4.19215 5.00171 7.50019 5.00171Z" fill="black"/>
</svg>
