<svg width="66" height="66" viewBox="0 0 66 66" fill="none" xmlns="http://www.w3.org/2000/svg">
<path d="M32.9994 62.3333C28.137 62.3333 23.4739 60.4018 20.0357 56.9636C16.5976 53.5254 14.666 48.8623 14.666 44V22C14.666 17.1377 16.5976 12.4745 20.0357 9.03637C23.4739 5.5982 28.137 3.66666 32.9994 3.66666C37.8617 3.66666 42.5248 5.5982 45.963 9.03637C49.4011 12.4745 51.3327 17.1377 51.3327 22V44C51.3327 46.4076 50.8585 48.7915 49.9371 51.0159C49.0158 53.2402 47.6654 55.2612 45.963 56.9636C44.2606 58.666 42.2395 60.0164 40.0152 60.9378C37.7909 61.8591 35.4069 62.3333 32.9994 62.3333ZM32.9994 7.33332C29.1095 7.33332 25.379 8.87856 22.6285 11.6291C19.8779 14.3796 18.3327 18.1101 18.3327 22V44C18.3327 47.8898 19.8779 51.6204 22.6285 54.3709C25.379 57.1214 29.1095 58.6667 32.9994 58.6667C36.8892 58.6667 40.6197 57.1214 43.3703 54.3709C46.1208 51.6204 47.666 47.8898 47.666 44V22C47.666 18.1101 46.1208 14.3796 43.3703 11.6291C40.6197 8.87856 36.8892 7.33332 32.9994 7.33332Z" fill="white"/>
<path d="M32.9993 27.5C32.5131 27.5 32.0468 27.3068 31.703 26.963C31.3592 26.6192 31.166 26.1529 31.166 25.6667V18.3333C31.166 17.8471 31.3592 17.3808 31.703 17.037C32.0468 16.6932 32.5131 16.5 32.9993 16.5C33.4856 16.5 33.9519 16.6932 34.2957 17.037C34.6395 17.3808 34.8327 17.8471 34.8327 18.3333V25.6667C34.8327 26.1529 34.6395 26.6192 34.2957 26.963C33.9519 27.3068 33.4856 27.5 32.9993 27.5Z" fill="white"/>
</svg>
