<svg width="14" height="14" viewBox="0 0 14 14" fill="none" xmlns="http://www.w3.org/2000/svg">
<path d="M13.2983 0.71001C13.2058 0.617307 13.0959 0.543759 12.9749 0.493577C12.8539 0.443396 12.7242 0.417566 12.5933 0.417566C12.4623 0.417566 12.3326 0.443396 12.2116 0.493577C12.0907 0.543759 11.9808 0.617307 11.8883 0.71001L6.99827 5.59001L2.10827 0.70001C2.01569 0.607428 1.90578 0.533988 1.78481 0.483883C1.66385 0.433778 1.5342 0.40799 1.40327 0.40799C1.27234 0.40799 1.14269 0.433778 1.02173 0.483883C0.900763 0.533988 0.790852 0.607428 0.69827 0.70001C0.605688 0.792592 0.532248 0.902502 0.482143 1.02347C0.432038 1.14443 0.40625 1.27408 0.40625 1.40501C0.40625 1.53594 0.432038 1.66559 0.482143 1.78655C0.532248 1.90752 0.605688 2.01743 0.69827 2.11001L5.58827 7.00001L0.69827 11.89C0.605688 11.9826 0.532248 12.0925 0.482143 12.2135C0.432038 12.3344 0.40625 12.4641 0.40625 12.595C0.40625 12.7259 0.432038 12.8556 0.482143 12.9766C0.532248 13.0975 0.605688 13.2074 0.69827 13.3C0.790852 13.3926 0.900763 13.466 1.02173 13.5161C1.14269 13.5662 1.27234 13.592 1.40327 13.592C1.5342 13.592 1.66385 13.5662 1.78481 13.5161C1.90578 13.466 2.01569 13.3926 2.10827 13.3L6.99827 8.41001L11.8883 13.3C11.9809 13.3926 12.0908 13.466 12.2117 13.5161C12.3327 13.5662 12.4623 13.592 12.5933 13.592C12.7242 13.592 12.8538 13.5662 12.9748 13.5161C13.0958 13.466 13.2057 13.3926 13.2983 13.3C13.3909 13.2074 13.4643 13.0975 13.5144 12.9766C13.5645 12.8556 13.5903 12.7259 13.5903 12.595C13.5903 12.4641 13.5645 12.3344 13.5144 12.2135C13.4643 12.0925 13.3909 11.9826 13.2983 11.89L8.40827 7.00001L13.2983 2.11001C13.6783 1.73001 13.6783 1.09001 13.2983 0.71001V0.71001Z" fill="black"/>
</svg>
