<svg width="15" height="12" viewBox="0 0 15 12" fill="none" xmlns="http://www.w3.org/2000/svg">
<path d="M13.47 3.384C13.47 3.25046 13.465 3.12062 13.4587 2.99262C14.0688 2.56615 14.5819 2.03385 15 1.42092V1.42031C14.4419 1.66092 13.8481 1.82092 13.2281 1.89846C13.8656 1.52369 14.3525 0.934769 14.5813 0.225231C13.9869 0.574154 13.3306 0.820308 12.6312 0.958154C12.0669 0.366154 11.2625 0 10.385 0C8.6825 0 7.31188 1.36062 7.31188 3.02831C7.31188 3.26831 7.3325 3.49908 7.38312 3.71877C4.82687 3.59569 2.56437 2.38954 1.04437 0.551385C0.779375 1.00492 0.623125 1.52369 0.623125 2.08185C0.623125 3.13046 1.17125 4.05969 1.98938 4.59815C1.495 4.58892 1.01063 4.44738 0.6 4.22523V4.25846C0.6 5.72985 1.66562 6.952 3.06375 7.23385C2.59375 7.36062 2.015 7.35569 1.67562 7.28185C2.07375 8.48062 3.205 9.36246 4.54875 9.39139C3.5025 10.1969 2.17375 10.6825 0.735625 10.6825C0.48375 10.6825 0.241875 10.6714 0 10.6412C1.3625 11.5058 2.97625 12 4.7175 12C10.3763 12 13.47 7.38462 13.47 3.384Z" fill="black"/>
</svg>
