<svg width="200" height="63" viewBox="0 0 200 63" fill="none" xmlns="http://www.w3.org/2000/svg">
<g clip-path="url(#clip0)">
<path d="M47.8789 13.4952V26.7413H44.0525V24.4267C41.8521 26.1199 39.1463 27.0158 36.375 26.9688C32.8587 26.9688 29.5533 25.7227 29.5254 20.8286L29.5688 13.4952H33.42V19.3675C33.42 22.1713 34.3502 23.6385 37.5161 23.6385C40.0897 23.6385 42.8649 22.3114 44.0525 20.9189V13.4952H47.8789Z" fill="white"/>
<path d="M63.5944 21.5919C61.7781 21.0301 59.8855 20.7568 57.9851 20.782C55.12 20.782 53.396 21.2773 53.396 22.6262C53.396 24.0218 54.6735 24.134 56.6642 24.134C59.0419 24.0559 61.3859 23.5451 63.582 22.6262V21.5919H63.5944ZM67.4425 20.0623V26.7415H63.5944V25.0997C61.1062 26.3477 58.3599 26.9881 55.5789 26.9689C51.8859 26.9689 49.582 25.7757 49.582 22.7851C49.582 19.3583 53.3402 18.2648 57.5262 18.2648C59.5858 18.2465 61.6349 18.5621 63.5944 19.1994C63.5944 16.6823 60.3696 16.4798 58.5805 16.4798C56.3657 16.4695 54.1621 16.7951 52.044 17.4455L50.6766 14.6418C53.2801 13.7543 56.008 13.2905 58.7572 13.2679C64.2642 13.2679 67.3991 15.0436 67.4394 20.0592L67.4425 20.0623Z" fill="white"/>
<path d="M87.5 19.4112L87.4411 26.7414H83.6023V20.8723C83.6023 18.0685 82.6721 16.6013 79.5062 16.6013C76.9325 16.6013 74.1573 17.9284 72.9697 19.3209V26.7414H69.1465V13.4953H72.9728V15.8131C75.1726 14.1186 77.8788 13.2225 80.6504 13.271C84.1666 13.271 87.4721 14.5171 87.5031 19.4112H87.5Z" fill="white"/>
<path d="M95.503 16.7133V20.5357C95.503 23.0996 95.9929 23.7507 98.3216 23.7507C99.4681 23.7774 100.615 23.7023 101.748 23.5264V26.6416C100.261 26.8869 98.7555 27.0006 97.2488 26.9812C93.8379 26.9812 91.6519 25.6977 91.6519 22.7756V16.7133H88.1914V13.4952H91.6612V10.7538L95.503 9.65723V13.4952H101.748V16.7133H95.503Z" fill="white"/>
<path d="M121.551 13.4952V26.7413H117.719V24.4267C115.518 26.1199 112.812 27.0158 110.041 26.9688C106.525 26.9688 103.235 25.7227 103.191 20.8286L103.235 13.4952H107.086V19.3675C107.086 22.1713 108.016 23.6385 111.182 23.6385C113.756 23.6385 116.531 22.3114 117.719 20.9189V13.4952H121.551Z" fill="white"/>
<path d="M151.898 19.3146L151.855 26.7352H148.025V20.8722C148.025 18.0685 147.557 16.6012 144.825 16.6012C142.926 16.6499 141.104 17.3652 139.675 18.623C139.696 18.855 139.704 19.0879 139.7 19.3208L139.653 26.7414H135.815V20.8722C135.815 18.0685 135.343 16.6012 132.612 16.6012C130.559 16.6414 128.602 17.4788 127.151 18.9376V26.7414H123.334V13.4953H127.163V15.6573C129.094 14.0733 131.521 13.2279 134.013 13.271C136.004 13.271 137.886 13.8566 138.894 15.7009C140.994 14.0914 143.57 13.2358 146.212 13.271C149.167 13.271 151.855 14.5171 151.898 19.3208V19.3146Z" fill="white"/>
<path d="M19.3645 20.813C21.248 19.2639 22.4679 17.0475 22.7724 14.6211C23.0768 12.1948 22.4427 9.74357 21.0009 7.7732C19.559 5.80284 17.4194 4.46365 15.0234 4.03192C12.6275 3.60019 10.158 4.10885 8.12443 5.45298C6.09086 6.7971 4.64838 8.87413 4.09458 11.2556C3.54078 13.637 3.91791 16.1411 5.14816 18.2514C6.37842 20.3616 8.36793 21.9169 10.7063 22.5965C13.0446 23.276 15.5533 23.0279 17.7149 21.9034C18.3009 21.5983 18.8537 21.2329 19.3645 20.813ZM22.0994 23.5638L25.3521 26.838H13.3583C10.31 26.8374 7.35366 25.7891 4.98027 23.8673C2.60688 21.9454 0.959307 19.2657 0.311209 16.2732C-0.336889 13.2807 0.0534934 10.1554 1.41751 7.41661C2.78153 4.67778 5.0371 2.49018 7.80957 1.21716C10.582 -0.0558629 13.7046 -0.337684 16.6585 0.418503C19.6124 1.17469 22.2199 2.92337 24.048 5.3741C25.876 7.82483 26.8146 10.8301 26.7077 13.8908C26.6009 16.9514 25.4551 19.8833 23.4606 22.1993C23.0416 22.6878 22.5866 23.1439 22.0994 23.5638Z" fill="white"/>
<path d="M42.0768 57.3769H36.9853L27.2334 39.676L24.6907 35.0591L27.2334 30.4392L29.7822 35.0623L42.0768 57.38V57.3769ZM23.4256 37.352L25.9589 41.9937L17.4845 57.3769H12.4023L23.4256 37.352Z" fill="white"/>
<path d="M58.1989 50.7787C58.1989 48.1464 56.3199 47.1339 52.8935 47.1339C49.4671 47.1339 47.6222 48.1464 47.6222 50.7787C47.6222 53.4111 49.4826 54.3987 52.8935 54.3987C56.3044 54.3987 58.1989 53.3862 58.1989 50.7787ZM62.016 39.3862V57.3769H58.1989V55.3083C56.7664 56.8161 54.4625 57.6012 51.6191 57.6012C47.3865 57.6012 43.7617 55.8255 43.7617 50.7663C43.7617 45.7071 47.3865 43.9127 51.6191 43.9127C54.4625 43.9127 56.7664 44.7009 58.1989 46.2055V39.3862H62.016Z" fill="white"/>
<path d="M81.9479 44.1309L75.2564 57.377H69.7928L63.123 44.1309H67.3742L72.5463 54.6573L77.6967 44.1309H81.9479Z" fill="white"/>
<path d="M85.3053 49.2211H95.3116C94.6635 47.352 92.7813 46.8348 90.3503 46.8348C87.7333 46.8348 85.8976 47.352 85.293 49.2211H85.3053ZM95.3798 52.6479H99.1844C98.31 56.0217 95.0418 57.6323 90.1643 57.6323C85.1472 57.6012 81.2402 55.623 81.2402 50.7788C81.2402 45.9345 85.0232 43.9252 90.3751 43.9252C95.3891 43.9252 99.3953 45.6573 99.3953 51.6853H85.172C85.5968 53.7974 87.6092 54.489 90.1643 54.489C92.803 54.489 94.4154 53.9937 95.3798 52.6448V52.6479Z" fill="white"/>
<path d="M115.01 44.3551V47.5732C113.907 47.2759 112.77 47.124 111.627 47.1215C109.118 47.0732 106.669 47.8913 104.688 49.4392V57.3769H100.861V44.1308H104.688V46.3801C106.66 44.6044 108.985 43.9065 111.45 43.9065C112.651 43.9007 113.848 44.0515 115.01 44.3551Z" fill="white"/>
<path d="M123.426 47.352V51.1776C123.426 53.7414 123.919 54.3925 126.245 54.3925C127.391 54.4193 128.538 54.3442 129.671 54.1682V57.2835C128.184 57.526 126.679 57.6386 125.172 57.62C121.761 57.62 119.575 56.3396 119.575 53.4143V47.352H116.105V44.1309H119.575V41.3863L123.426 40.2866V44.1309H129.671V47.352H123.426Z" fill="white"/>
<path d="M135.065 44.1308V57.3769H131.238V44.1308H135.065ZM135.065 39.3862V42.7383H131.238V39.3862H135.065Z" fill="white"/>
<path d="M140.347 52.7227C140.347 54.1401 141.801 54.6791 146.077 54.6791C150.219 54.6791 150.889 54.4081 150.889 53.3738C150.889 52.3395 150.269 52.2959 145.618 52.0031C139.819 51.6666 136.976 51.2149 136.976 48.0218C136.976 44.5576 141.007 43.9065 145.705 43.9065C150.666 43.9065 154.278 44.5576 154.278 48.2024H150.443C150.443 47.0996 149.054 46.8286 145.481 46.8286C141.857 46.8286 140.83 47.0996 140.83 47.8629C140.83 48.6978 141.522 48.8317 146.068 49.1682C151.215 49.5514 154.731 49.6853 154.731 53.218C154.731 56.9563 151.373 57.6012 146.291 57.6012C141.209 57.6012 136.508 56.9501 136.508 52.7227H140.347Z" fill="white"/>
<path d="M160.022 44.1308V57.3769H156.195V44.1308H160.022ZM160.022 39.3862V42.7383H156.195V39.3862H160.022Z" fill="white"/>
<path d="M180.304 50.0466L180.257 57.3769H176.406V51.5077C176.406 48.704 175.476 47.2335 172.31 47.2335C169.736 47.2335 166.961 48.5607 165.774 49.9563V57.3769H161.947V44.1307H165.774V46.4485C167.974 44.7535 170.682 43.8575 173.454 43.9064C176.967 43.9064 180.257 45.1525 180.304 50.0466Z" fill="white"/>
<path d="M196.149 50.5638C196.149 48.1339 194.471 47.1214 190.878 47.1214C187.284 47.1214 185.572 48.1339 185.572 50.5638C185.572 52.9937 187.271 53.9906 190.878 53.9906C194.484 53.9906 196.149 52.9781 196.149 50.5638ZM200 44.1308V55.2647C200 60.6603 196.397 62.9999 191.405 62.9999C188.618 62.9922 185.844 62.6375 183.144 61.9438V58.8286C184.695 59.1214 187.644 59.7631 190.555 59.7631C194.518 59.7631 195.994 58.2336 196.137 54.8379C194.794 56.3208 192.58 57.1993 189.467 57.1993C184.946 57.1993 181.715 55.218 181.715 50.542C181.715 45.866 184.94 43.8846 189.467 43.8846C192.602 43.8846 194.816 44.76 196.137 46.246V44.1089L200 44.1308Z" fill="white"/>
</g>
<defs>
<clipPath id="clip0">
<rect width="200" height="63" fill="white"/>
</clipPath>
</defs>
</svg>
