<svg width="20" height="29" viewBox="0 0 20 29" fill="none" xmlns="http://www.w3.org/2000/svg">
<path d="M19.5275 7.21782C19.4242 6.83094 19.2143 6.41871 19.0591 6.05779C17.2014 1.59822 13.1424 0 9.8649 0C5.47743 0 0.64515 2.93875 0 8.9962V10.2338C0 10.2854 0.0178196 10.7494 0.0431315 10.9814C0.404788 13.8683 2.68522 16.9363 4.38835 19.8232C6.22066 22.9161 8.12196 25.9587 10.0056 29C11.1671 27.0153 12.3245 25.0045 13.4595 23.0712C13.7689 22.5038 14.128 21.9368 14.4377 21.3952C14.6441 21.0346 15.0384 20.6741 15.2185 20.3386C17.0508 16.9876 20 13.6108 20 10.2853V8.9192C20.0001 8.55869 19.5527 7.29556 19.5275 7.21782ZM9.94522 13.4304C8.65553 13.4304 7.24387 12.7862 6.54708 11.0073C6.44327 10.7241 6.45164 10.1566 6.45164 10.1046V9.30548C6.45164 7.0376 8.3794 6.00628 10.0565 6.00628C12.1211 6.00628 13.7179 7.65628 13.7179 9.71865C13.7179 11.781 12.0099 13.4304 9.94522 13.4304Z" fill="#4414DA"/>
</svg>
