<svg width="60" height="60" viewBox="0 0 60 60" fill="none" xmlns="http://www.w3.org/2000/svg">
<path d="M28.9801 5.85942C28.9801 5.29414 29.4347 4.83872 30.0008 4.83872C30.5661 4.83872 31.0215 5.29336 31.0215 5.85942C31.0215 6.46355 30.5044 6.9349 29.8984 6.87477C29.3756 6.82287 28.9801 6.38566 28.9801 5.85942Z" fill="black" stroke="white" stroke-width="0.3"/>
<path d="M29.7065 59.807L29.6634 59.9507C29.7732 59.9835 29.8866 60 30 60C30.1134 60 30.227 59.9835 30.3367 59.9505L29.7065 59.807ZM29.7065 59.807C29.8024 59.8356 29.9012 59.85 30 59.85C30.0989 59.85 30.1979 59.8356 30.2935 59.8069L30.2936 59.8069C44.4742 55.5531 54.4594 42.4894 54.4594 27.327V8.20312C54.4594 7.63886 54.0018 7.18125 53.4375 7.18125C50.1238 7.18125 47.4281 4.48558 47.4281 1.17188C47.4281 0.607608 46.9705 0.15 46.4062 0.15H13.5938C13.0295 0.15 12.5719 0.607608 12.5719 1.17188C12.5719 4.48558 9.8762 7.18125 6.5625 7.18125C5.99823 7.18125 5.54063 7.63886 5.54063 8.20312V27.327C5.54063 42.1651 15.2122 55.4605 29.7065 59.807ZM29.9554 57.7459L30 57.7598L30.0446 57.7459C43.4408 53.5708 52.4156 41.3904 52.4156 27.327V9.29156V9.16157L52.287 9.14309C48.7656 8.63716 45.9722 5.84374 45.4663 2.32242L45.4478 2.19375H45.3178H14.6822H14.5522L14.5337 2.32242C14.0278 5.84374 11.2344 8.63716 7.71304 9.14309L7.58437 9.16157V9.29156V27.327C7.58437 41.3139 16.6656 53.604 29.9554 57.7459Z" fill="black" stroke="white" stroke-width="0.3"/>
<path d="M43.6333 5.44939C44.7187 7.92774 46.6816 9.89066 49.1599 10.9761C49.5316 11.139 49.7719 11.5062 49.7719 11.9121V27.327C49.7719 39.8376 42.0313 50.7243 30.3409 54.8612L30.3909 55.0027L30.3409 54.8613C30.2306 54.9003 30.1154 54.9198 30 54.9198C29.8846 54.9198 29.7694 54.9003 29.6591 54.8613L29.6091 55.0027L29.6591 54.8612C17.9589 50.7208 10.2281 39.8274 10.2281 27.327V11.9121C10.2281 11.5064 10.4683 11.139 10.84 10.9761C13.3184 9.89068 15.2813 7.92775 16.3667 5.44939C16.5296 5.07771 16.8969 4.8375 17.3027 4.8375H25.3148C25.8791 4.8375 26.3367 5.29511 26.3367 5.85937C26.3367 6.42364 25.8791 6.88125 25.3148 6.88125H18.0437H17.9519L17.9101 6.96301C16.6863 9.35845 14.7491 11.2957 12.3536 12.5195L12.2719 12.5613V12.6531V27.327C12.2719 38.8578 19.1954 48.8092 29.9479 52.7923L30 52.8116L30.0521 52.7923C40.8046 48.8094 47.7281 38.8578 47.7281 27.327V12.6531V12.5613L47.6464 12.5195C45.2509 11.2957 43.3136 9.35845 42.0899 6.96301L42.0481 6.88125H41.9563H34.6852C34.1209 6.88125 33.6633 6.42364 33.6633 5.85937C33.6633 5.29511 34.1209 4.8375 34.6852 4.8375H42.6973C43.1031 4.8375 43.4704 5.07762 43.6333 5.44939ZM43.6333 5.44939L43.7707 5.38922M43.6333 5.44939C43.6333 5.4494 43.6333 5.44941 43.6333 5.44942L43.7707 5.38922M43.7707 5.38922C44.841 7.83305 46.7763 9.7684 49.2202 10.8387L34.6852 7.03125C34.038 7.03125 33.5133 6.50648 33.5133 5.85937C33.5133 5.21227 34.038 4.6875 34.6852 4.6875H42.6973C43.1627 4.6875 43.5839 4.96289 43.7707 5.38922Z" fill="black" stroke="white" stroke-width="0.3"/>
<path d="M19.6031 27.6562C19.6031 21.9235 24.2673 17.2594 30 17.2594C35.7327 17.2594 40.3969 21.9235 40.3969 27.6562C40.3969 33.389 35.7327 38.0531 30 38.0531C24.2673 38.0531 19.6031 33.389 19.6031 27.6562ZM21.6469 27.6562C21.6469 32.2623 25.394 36.0094 30 36.0094C34.606 36.0094 38.3531 32.2623 38.3531 27.6562C38.3531 23.0502 34.606 19.3031 30 19.3031C25.394 19.3031 21.6469 23.0502 21.6469 27.6562Z" fill="#4414DA" stroke="white" stroke-width="0.3"/>
<path d="M28.8282 29.7266L28.7222 29.6206L27.2071 28.1056C26.8079 27.7066 26.161 27.7066 25.7617 28.1056C25.3628 28.5046 25.3627 29.1517 25.7618 29.5508C25.7618 29.5508 25.7618 29.5508 25.7618 29.5508L28.1054 31.8945L28.8282 29.7266ZM28.8282 29.7266L28.9343 29.6206M28.8282 29.7266L28.9343 29.6206M28.9343 29.6206L33.9649 24.5899C33.9649 24.5898 33.9649 24.5898 33.9649 24.5898M28.9343 29.6206L33.9649 24.5898M33.9649 24.5898C34.3642 24.1909 35.011 24.1909 35.4101 24.5898M33.9649 24.5898L35.4101 24.5898M35.4101 24.5898C35.8092 24.989 35.8092 25.636 35.4102 26.0351L29.5508 31.8944C29.5508 31.8944 29.5508 31.8944 29.5508 31.8945C29.3511 32.094 29.09 32.1938 28.8282 32.1938C28.5664 32.1938 28.3053 32.094 28.1055 31.8946L35.4101 24.5898Z" fill="#4414DA" stroke="white" stroke-width="0.3"/>
</svg>
