<svg width="62" height="62" viewBox="0 0 62 62" fill="none" xmlns="http://www.w3.org/2000/svg">
<path d="M31.001 61C22.9836 61 15.4543 57.8827 9.80003 52.2224C-1.88907 40.5203 -1.88907 21.4797 9.80003 9.77781C15.4543 4.11742 22.9835 1 31.0009 1C39.0183 1 46.5475 4.1173 52.2016 9.77758C63.8907 21.4796 63.8907 40.5203 52.2016 52.2223L51.3725 51.3941L52.2016 52.2223C46.5476 57.8827 39.0183 61 31.001 61ZM31.0009 3.34375C23.6101 3.34375 16.6697 6.21707 11.4582 11.4341C0.681436 22.2228 0.681436 39.7772 11.4582 50.566C16.6697 55.783 23.6101 58.6562 31.0009 58.6562C38.3917 58.6562 45.3321 55.783 50.5434 50.566C61.3203 39.7773 61.3203 22.2228 50.5434 11.434C45.3321 6.21695 38.3918 3.34375 31.0009 3.34375V3.34375Z" fill="black" stroke="white" stroke-width="0.4"/>
<path d="M31.0007 54.0152C24.8499 54.0152 19.0735 51.6236 14.7356 47.2809C11.2701 43.8115 9.03971 39.4168 8.28561 34.5718C8.186 33.9323 8.62381 33.3332 9.26331 33.2336C9.90163 33.1341 10.5019 33.5717 10.6015 34.2113C11.2788 38.5622 13.2818 42.5089 16.394 45.6245C20.2891 49.524 25.4767 51.6715 31.0009 51.6715C36.5251 51.6715 41.7125 49.5241 45.6077 45.6245C53.663 37.5604 53.663 24.4394 45.6077 16.3752C41.7124 12.4758 36.5249 10.3284 31.0007 10.3284C25.4764 10.3284 20.289 12.4758 16.3938 16.3754C14.6948 18.0761 13.3201 20.0338 12.3074 22.1942C12.0326 22.7801 11.3348 23.0327 10.7489 22.758C10.1628 22.4833 9.91053 21.7856 10.1852 21.1995C11.3134 18.7926 12.8443 16.6122 14.7356 14.7189C19.0735 10.3762 24.8499 7.98462 31.0007 7.98462C37.1514 7.98462 42.9278 10.3762 47.2657 14.7189C56.2332 23.6963 56.2332 38.3036 47.2657 47.281C42.9279 51.6236 37.1515 54.0152 31.0007 54.0152V54.0152Z" fill="black" stroke="white" stroke-width="0.4"/>
<path d="M9.44851 28.7535C8.95222 28.7535 8.49882 28.4287 8.33992 27.9583C8.18148 27.4893 8.34062 26.9536 8.73531 26.6522C9.11406 26.3629 9.64176 26.3344 10.0507 26.5776C10.4698 26.8266 10.6954 27.333 10.5981 27.8113C10.4881 28.3519 10.0007 28.7535 9.44851 28.7535V28.7535Z" fill="black" stroke="white" stroke-width="0.4"/>
<path d="M45.7847 30.8723C45.2945 30.8723 44.8476 30.5552 44.6825 30.0946C44.5158 29.6296 44.6663 29.0945 45.0526 28.7856C45.4289 28.4846 45.966 28.447 46.3809 28.6916C46.8043 28.9412 47.031 29.4467 46.9343 29.9289C46.8258 30.4701 46.3372 30.8723 45.7847 30.8723V30.8723Z" fill="black" stroke="white" stroke-width="0.4"/>
<path fill-rule="evenodd" clip-rule="evenodd" d="M44.007 35.2293C44.2051 34.6133 44.8649 34.2747 45.4815 34.4728C46.0977 34.671 46.4363 35.3313 46.238 35.9471C45.4678 38.3401 44.1162 40.5503 42.3291 42.3392C41.1003 43.5694 39.6951 44.5826 38.1525 45.3508L38.1502 45.3519C35.9114 46.468 33.4559 47.026 31.0003 47.026C28.5448 47.026 26.0892 46.468 23.8506 45.352L23.8483 45.3509C22.3057 44.5829 20.9004 43.5696 19.6716 42.3392C13.4246 36.0869 13.4246 25.913 19.6717 19.6605C22.6928 16.6355 26.7161 14.9695 31.0003 14.9695C35.2846 14.9695 39.3079 16.6355 42.3291 19.6607C43.5456 20.8771 44.5519 22.271 45.3198 23.803C45.6099 24.3816 45.3758 25.0857 44.7972 25.3757C44.2186 25.6652 43.5146 25.4317 43.2244 24.8531C42.5693 23.5461 41.7103 22.3565 40.6714 21.3175C38.0924 18.7352 34.658 17.3132 31.0005 17.3132C27.3429 17.3132 23.9086 18.7352 21.3301 21.3169C15.9954 26.6564 15.9954 35.3437 21.3299 40.6829C21.9092 41.2627 22.5341 41.7857 23.1988 42.2483V38.9346C23.1988 37.288 24.5376 35.9483 26.1831 35.9483H35.8179C37.4635 35.9483 38.8022 37.2878 38.8022 38.9346V42.2484C39.4669 41.7859 40.0917 41.263 40.671 40.6831C42.2183 39.134 43.3408 37.2992 44.007 35.2293ZM25.5426 38.9346V43.5557C29.008 45.06 32.9929 45.06 36.4585 43.5557V38.9346C36.4585 38.5803 36.1711 38.292 35.8179 38.292H26.1831C25.8299 38.292 25.5426 38.5803 25.5426 38.9346ZM31.0007 35.1799C27.357 35.1799 24.3926 32.213 24.3926 28.5661C24.3926 24.9191 27.357 21.9521 31.0007 21.9521C34.6444 21.9521 37.6088 24.9191 37.6088 28.5661C37.6088 32.213 34.6444 35.1799 31.0007 35.1799ZM31.0005 32.8362C33.3519 32.8362 35.2649 30.9206 35.2649 28.5661C35.2649 26.2116 33.3519 24.2959 31.0005 24.2959C28.6492 24.2959 26.7362 26.2114 26.7362 28.5661C26.7362 30.9205 28.6492 32.8362 31.0005 32.8362Z" fill="#4414DA"/>
<path d="M45.4815 34.4728L45.5428 34.2824L45.5427 34.2823L45.4815 34.4728ZM44.007 35.2293L44.1974 35.2906L44.1974 35.2906L44.007 35.2293ZM46.238 35.9471L46.0476 35.8858L46.0476 35.8858L46.238 35.9471ZM42.3291 42.3392L42.1876 42.1979L42.1876 42.1979L42.3291 42.3392ZM38.1525 45.3508L38.2346 45.5334L38.2417 45.5298L38.1525 45.3508ZM38.1502 45.3519L38.0681 45.1693L38.0609 45.1729L38.1502 45.3519ZM23.8506 45.352L23.9399 45.1729L23.9327 45.1696L23.8506 45.352ZM23.8483 45.3509L23.7591 45.5301L23.7662 45.5333L23.8483 45.3509ZM19.6716 42.3392L19.8131 42.1979L19.8131 42.1978L19.6716 42.3392ZM19.6717 19.6605L19.8132 19.8019L19.8132 19.8018L19.6717 19.6605ZM42.3291 19.6607L42.1876 19.8021L42.1877 19.8022L42.3291 19.6607ZM45.3198 23.803L45.4986 23.7133L45.4986 23.7133L45.3198 23.803ZM44.7972 25.3757L44.8867 25.5546L44.8868 25.5545L44.7972 25.3757ZM43.2244 24.8531L43.0456 24.9427L43.0456 24.9427L43.2244 24.8531ZM40.6714 21.3175L40.5298 21.4589L40.5299 21.459L40.6714 21.3175ZM21.3301 21.3169L21.4716 21.4583L21.4717 21.4583L21.3301 21.3169ZM21.3299 40.6829L21.4714 40.5415L21.4714 40.5415L21.3299 40.6829ZM23.1988 42.2483L23.0846 42.4124L23.3988 42.6311V42.2483H23.1988ZM38.8022 42.2484H38.6022V42.6312L38.9164 42.4126L38.8022 42.2484ZM40.671 40.6831L40.8125 40.8245L40.8125 40.8245L40.671 40.6831ZM25.5426 43.5557H25.3426V43.687L25.4629 43.7392L25.5426 43.5557ZM36.4585 43.5557L36.5381 43.7392L36.6585 43.687V43.5557H36.4585ZM45.5427 34.2823C44.8211 34.0506 44.0486 34.4468 43.8166 35.1681L44.1974 35.2906C44.3617 34.7798 44.9088 34.4989 45.4204 34.6632L45.5427 34.2823ZM46.4284 36.0084C46.6605 35.2874 46.2641 34.5145 45.5428 34.2824L45.4203 34.6632C45.9313 34.8276 46.212 35.3751 46.0476 35.8858L46.4284 36.0084ZM42.4706 42.4806C44.28 40.6694 45.6484 38.4317 46.4284 36.0084L46.0476 35.8858C45.2872 38.2484 43.9524 40.4313 42.1876 42.1979L42.4706 42.4806ZM38.2417 45.5298C39.8038 44.7519 41.2266 43.726 42.4706 42.4806L42.1876 42.1979C40.9739 43.4129 39.5864 44.4134 38.0634 45.1718L38.2417 45.5298ZM38.2322 45.5343L38.2345 45.5332L38.0705 45.1684L38.0682 45.1695L38.2322 45.5343ZM31.0003 47.226C33.4861 47.226 35.9722 46.6611 38.2394 45.5309L38.0609 45.1729C35.8506 46.2748 33.4257 46.826 31.0003 46.826V47.226ZM23.7614 45.531C26.0284 46.6611 28.5146 47.226 31.0003 47.226V46.826C28.575 46.826 26.1501 46.2748 23.9398 45.173L23.7614 45.531ZM23.7662 45.5333L23.7685 45.5344L23.9327 45.1696L23.9303 45.1685L23.7662 45.5333ZM19.5301 42.4805C20.7741 43.7261 22.197 44.7522 23.7591 45.53L23.9374 45.1719C22.4144 44.4136 21.0268 43.413 19.8131 42.1979L19.5301 42.4805ZM19.5302 19.5191C13.2051 25.8498 13.205 36.1502 19.5301 42.4806L19.8131 42.1978C13.6441 36.0236 13.6441 25.9763 19.8132 19.8019L19.5302 19.5191ZM31.0003 14.7695C26.6631 14.7695 22.5889 16.4566 19.5302 19.5192L19.8132 19.8018C22.7967 16.8145 26.769 15.1695 31.0003 15.1695V14.7695ZM42.4706 19.5194C39.4118 16.4566 35.3376 14.7695 31.0003 14.7695V15.1695C35.2316 15.1695 39.204 16.8145 42.1876 19.8021L42.4706 19.5194ZM45.4986 23.7133C44.7211 22.1621 43.7021 20.7508 42.4705 19.5193L42.1877 19.8022C43.3891 21.0035 44.3827 22.3798 45.141 23.8926L45.4986 23.7133ZM44.8868 25.5545C45.5642 25.215 45.8382 24.3908 45.4986 23.7133L45.141 23.8926C45.3816 24.3725 45.1875 24.9564 44.7076 25.1969L44.8868 25.5545ZM43.0456 24.9427C43.3853 25.6202 44.2095 25.8934 44.8867 25.5546L44.7077 25.1969C44.2277 25.437 43.6438 25.2433 43.4032 24.7634L43.0456 24.9427ZM40.5299 21.459C41.5538 22.4829 42.4002 23.655 43.0456 24.9427L43.4032 24.7635C42.7385 23.4372 41.8668 22.2302 40.8128 21.1761L40.5299 21.459ZM31.0005 17.5132C34.605 17.5132 37.9885 18.9142 40.5298 21.4589L40.8129 21.1762C38.1963 18.5562 34.7109 17.1132 31.0005 17.1132V17.5132ZM21.4717 21.4583C24.0125 18.9142 27.3959 17.5132 31.0005 17.5132V17.1132C27.29 17.1132 23.8047 18.5562 21.1886 21.1756L21.4717 21.4583ZM21.4714 40.5415C16.2149 35.2804 16.2149 26.7196 21.4716 21.4583L21.1887 21.1756C15.7759 26.5931 15.7759 35.407 21.1884 40.8242L21.4714 40.5415ZM23.3131 42.0841C22.6582 41.6284 22.0423 41.113 21.4714 40.5415L21.1884 40.8242C21.776 41.4124 22.4101 41.9431 23.0846 42.4124L23.3131 42.0841ZM22.9988 38.9346V42.2483H23.3988V38.9346H22.9988ZM26.1831 35.7483C24.427 35.7483 22.9988 37.1776 22.9988 38.9346H23.3988C23.3988 37.3983 24.6481 36.1483 26.1831 36.1483V35.7483ZM35.8179 35.7483H26.1831V36.1483H35.8179V35.7483ZM39.0022 38.9346C39.0022 37.1775 37.574 35.7483 35.8179 35.7483V36.1483C37.3529 36.1483 38.6022 37.3982 38.6022 38.9346H39.0022ZM39.0022 42.2484V38.9346H38.6022V42.2484H39.0022ZM40.5295 40.5418C39.9586 41.1133 39.3429 41.6285 38.688 42.0842L38.9164 42.4126C39.5909 41.9432 40.2249 41.4127 40.8125 40.8245L40.5295 40.5418ZM43.8166 35.1681C43.1602 37.2075 42.0546 39.0149 40.5295 40.5418L40.8125 40.8245C42.3821 39.2531 43.5214 37.3909 44.1974 35.2906L43.8166 35.1681ZM25.7426 43.5557V38.9346H25.3426V43.5557H25.7426ZM36.3788 43.3723C32.964 44.8544 29.0369 44.8544 25.6222 43.3723L25.4629 43.7392C28.9792 45.2655 33.0217 45.2655 36.5381 43.7392L36.3788 43.3723ZM36.2585 38.9346V43.5557H36.6585V38.9346H36.2585ZM35.8179 38.492C36.0601 38.492 36.2585 38.6902 36.2585 38.9346H36.6585C36.6585 38.4704 36.2822 38.092 35.8179 38.092V38.492ZM26.1831 38.492H35.8179V38.092H26.1831V38.492ZM25.7426 38.9346C25.7426 38.6902 25.941 38.492 26.1831 38.492V38.092C25.7189 38.092 25.3426 38.4704 25.3426 38.9346H25.7426ZM24.1926 28.5661C24.1926 32.3233 27.2463 35.3799 31.0007 35.3799V34.9799C27.4676 34.9799 24.5926 32.1027 24.5926 28.5661H24.1926ZM31.0007 21.7521C27.2463 21.7521 24.1926 24.8088 24.1926 28.5661H24.5926C24.5926 25.0294 27.4676 22.1521 31.0007 22.1521V21.7521ZM37.8088 28.5661C37.8088 24.8088 34.755 21.7521 31.0007 21.7521V22.1521C34.5338 22.1521 37.4088 25.0294 37.4088 28.5661H37.8088ZM31.0007 35.3799C34.755 35.3799 37.8088 32.3233 37.8088 28.5661H37.4088C37.4088 32.1027 34.5338 34.9799 31.0007 34.9799V35.3799ZM35.0649 28.5661C35.0649 30.8104 33.2412 32.6362 31.0005 32.6362V33.0362C33.4626 33.0362 35.4649 31.0308 35.4649 28.5661H35.0649ZM31.0005 24.4959C33.2412 24.4959 35.0649 26.3218 35.0649 28.5661H35.4649C35.4649 26.1014 33.4626 24.0959 31.0005 24.0959V24.4959ZM26.9362 28.5661C26.9362 26.3216 28.7599 24.4959 31.0005 24.4959V24.0959C28.5385 24.0959 26.5362 26.1012 26.5362 28.5661H26.9362ZM31.0005 32.6362C28.7599 32.6362 26.9362 30.8103 26.9362 28.5661H26.5362C26.5362 31.0307 28.5385 33.0362 31.0005 33.0362V32.6362Z" fill="white"/>
</svg>
