<svg width="22" height="22" viewBox="0 0 22 22" fill="none" xmlns="http://www.w3.org/2000/svg">
<path d="M18.5019 13.7626C17.7069 12.9776 16.7143 12.9776 15.9243 13.7626C15.3216 14.3601 14.719 14.9577 14.1265 15.5654C13.9644 15.7325 13.8277 15.768 13.6302 15.6566C13.2402 15.4439 12.825 15.2717 12.4502 15.0387C10.7031 13.9398 9.23953 12.5269 7.9431 10.9368C7.29994 10.1467 6.72769 9.30102 6.32762 8.34895C6.24659 8.15651 6.26178 8.02991 6.41877 7.87292C7.02141 7.29054 7.60886 6.69296 8.20137 6.09539C9.02683 5.26486 9.02683 4.29254 8.19631 3.45695C7.72534 2.98091 7.25437 2.51501 6.7834 2.03897C6.29723 1.55281 5.81614 1.06158 5.32491 0.580484C4.52983 -0.194337 3.53725 -0.194337 2.74724 0.585549C2.13953 1.18312 1.55715 1.79589 0.93932 2.38334C0.367066 2.9252 0.078407 3.58861 0.0176367 4.36344C-0.078583 5.62442 0.230333 6.8145 0.665853 7.9742C1.55715 10.3746 2.91435 12.5067 4.56022 14.4614C6.7834 17.1049 9.43703 19.1964 12.5414 20.7056C13.9391 21.3842 15.3875 21.9058 16.9624 21.9919C18.0462 22.0527 18.9881 21.7792 19.7427 20.9335C20.2592 20.3561 20.8416 19.8295 21.3885 19.2775C22.1988 18.4571 22.2039 17.4645 21.3987 16.6542C20.4365 15.687 19.4692 14.7248 18.5019 13.7626Z" fill="#4414DA"/>
</svg>
